<?xml version="1.0" encoding="UTF-8" standalone="no"?>
<!-- Created with Inkscape (http://www.inkscape.org/) -->

<svg
   width="3.2032166mm"
   height="5.080101mm"
   viewBox="0 0 3.2032166 5.080101"
   version="1.1"
   id="svg5"
   inkscape:version="1.2.1 (9c6d41e410, 2022-07-14, custom)"
   sodipodi:docname="awesome-15-anniversary.svg"
   xml:space="preserve"
   xmlns:inkscape="http://www.inkscape.org/namespaces/inkscape"
   xmlns:sodipodi="http://sodipodi.sourceforge.net/DTD/sodipodi-0.dtd"
   xmlns="http://www.w3.org/2000/svg"
   xmlns:svg="http://www.w3.org/2000/svg"><sodipodi:namedview
     id="namedview7"
     pagecolor="#ffffff"
     bordercolor="#666666"
     borderopacity="1.0"
     inkscape:showpageshadow="2"
     inkscape:pageopacity="0.0"
     inkscape:pagecheckerboard="0"
     inkscape:deskcolor="#d1d1d1"
     inkscape:document-units="mm"
     showgrid="false"
     inkscape:zoom="2.587745"
     inkscape:cx="238.43153"
     inkscape:cy="160.37129"
     inkscape:window-width="3836"
     inkscape:window-height="2128"
     inkscape:window-x="0"
     inkscape:window-y="29"
     inkscape:window-maximized="1"
     inkscape:current-layer="layer2" /><defs
     id="defs2" /><g
     inkscape:groupmode="layer"
     id="layer2"
     inkscape:label="Vrstva 2"
     transform="translate(-16.466311,-67.20207)"><path
       style="fill:#535d6c;fill-opacity:1;stroke-width:0.00401469"
       d="m 17.068561,72.279908 c -0.06512,-0.0092 -0.135351,-0.03792 -0.185864,-0.07599 -0.03942,-0.0297 -0.305173,-0.29319 -0.333123,-0.330282 -0.03106,-0.04122 -0.05746,-0.09571 -0.07076,-0.14606 -0.009,-0.0339 -0.0106,-0.04887 -0.01099,-0.10008 -4.87e-4,-0.06416 0.004,-0.09644 0.02017,-0.144076 0.01154,-0.03404 0.03677,-0.0815 0.05894,-0.110857 0.0092,-0.01214 0.378923,-0.383873 0.821672,-0.826063 l 0.805001,-0.803982 -0.807579,-0.80591 c -0.868997,-0.867202 -0.830696,-0.827234 -0.86468,-0.902333 -0.03946,-0.0872 -0.0462,-0.204096 -0.01711,-0.297017 0.02317,-0.07401 0.06259,-0.131785 0.142275,-0.208502 0.02508,-0.02415 0.09077,-0.08852 0.145967,-0.143061 0.07486,-0.07396 0.109041,-0.104778 0.134492,-0.121265 0.06588,-0.04267 0.118678,-0.0588 0.202742,-0.06194 0.09159,-0.0034 0.161708,0.01348 0.231318,0.05575 0.02999,0.01821 0.06952,0.05615 0.362732,0.348087 1.034812,1.03032 1.871968,1.868597 1.888844,1.891374 0.03503,0.04727 0.06171,0.10932 0.07242,0.168427 0.0024,0.01354 0.0045,0.04765 0.0045,0.0758 0,0.09521 -0.02315,0.169074 -0.07684,0.245141 -0.01485,0.02105 -0.333789,0.342044 -1.095376,1.102464 -0.590931,0.590026 -1.08514,1.082111 -1.098243,1.093521 -0.07356,0.06406 -0.154793,0.0955 -0.255198,0.09876 -0.0276,8.82e-4 -0.06148,4e-5 -0.07528,-0.0019 z"
       id="path3950"
       inkscape:label="bullet" /></g></svg>
