<?xml version="1.0" encoding="UTF-8" standalone="no"?>
<!-- Created with Inkscape (http://www.inkscape.org/) -->
<svg
   xmlns:dc="http://purl.org/dc/elements/1.1/"
   xmlns:cc="http://web.resource.org/cc/"
   xmlns:rdf="http://www.w3.org/1999/02/22-rdf-syntax-ns#"
   xmlns:svg="http://www.w3.org/2000/svg"
   xmlns="http://www.w3.org/2000/svg"
   xmlns:sodipodi="http://sodipodi.sourceforge.net/DTD/sodipodi-0.dtd"
   xmlns:inkscape="http://www.inkscape.org/namespaces/inkscape"
   width="744.09448819"
   height="1052.3622047"
   id="svg2201"
   sodipodi:version="0.32"
   inkscape:version="0.45.1"
   sodipodi:docbase="/home/blackfox/Documents/Branko/Projekti/Awsome/package"
   sodipodi:docname="aw-block-identity.svg"
   inkscape:output_extension="org.inkscape.output.svg.inkscape">
  <defs
     id="defs2203" />
  <sodipodi:namedview
     id="base"
     pagecolor="#ffffff"
     bordercolor="#666666"
     borderopacity="1.0"
     gridtolerance="10000"
     guidetolerance="10"
     objecttolerance="10"
     inkscape:pageopacity="0.0"
     inkscape:pageshadow="2"
     inkscape:zoom="1.4"
     inkscape:cx="343.88787"
     inkscape:cy="766.39343"
     inkscape:document-units="px"
     inkscape:current-layer="layer1"
     showgrid="true"
     showguides="true"
     inkscape:guide-bbox="true"
     inkscape:window-width="1280"
     inkscape:window-height="975"
     inkscape:window-x="0"
     inkscape:window-y="31" />
  <metadata
     id="metadata2206">
    <rdf:RDF>
      <cc:Work
         rdf:about="">
        <dc:format>image/svg+xml</dc:format>
        <dc:type
           rdf:resource="http://purl.org/dc/dcmitype/StillImage" />
      </cc:Work>
    </rdf:RDF>
  </metadata>
  <g
     inkscape:label="Layer 1"
     inkscape:groupmode="layer"
     id="layer1">
    <g
       id="g2283"
       transform="translate(122.68697,125)">
      <path
         id="rect3458"
         d="M 55.31303,207.36218 L 55.31303,217.36218 L 65.31303,217.36218 L 77.31303,217.36218 L 77.31303,218.36218 L 65.31303,218.36218 L 55.31303,218.36218 L 55.31303,230.36218 L 55.31303,239.36218 L 68.84428,239.36218 L 76.313029,239.36218 L 76.313029,229.36218 L 68.84428,229.36218 L 65.31303,229.36218 L 65.31303,228.36218 L 77.31303,228.36218 L 77.31303,229.36218 L 77.31303,231.36219 L 77.31303,239.36218 L 87.31303,239.36218 L 87.31303,231.36219 L 87.31303,229.36218 L 87.31303,216.36218 L 87.31303,207.36218 L 77.31303,207.36218 L 65.31303,207.36218 L 55.31303,207.36218 z "
         style="opacity:1;fill:#535d6c;fill-opacity:1;stroke:none;stroke-width:0.5;stroke-linecap:round;stroke-linejoin:round;stroke-miterlimit:4;stroke-dasharray:none;stroke-dashoffset:0;stroke-opacity:1" />
      <path
         id="rect2210"
         d="M 55.31303,240.36218 L 55.31303,272.36218 L 87.31303,272.36218 L 87.31303,240.36218 L 77.31303,240.36218 L 77.31303,262.36218 L 76.31303,262.36218 L 76.31303,240.36218 L 66.31303,240.36218 L 66.31303,262.36218 L 65.31303,262.36218 L 65.31303,240.36218 L 55.31303,240.36218 z "
         style="opacity:1;fill:#999999;fill-opacity:1;stroke:none;stroke-width:0.5;stroke-linecap:round;stroke-linejoin:round;stroke-miterlimit:4;stroke-dasharray:none;stroke-dashoffset:0;stroke-opacity:1" />
      <path
         id="rect2216"
         d="M 88.31303,240.36218 L 88.31303,261.36218 L 110.31303,261.36218 L 110.31303,262.36218 L 88.31303,262.36218 L 88.31303,272.36218 L 120.31303,272.36218 L 120.31303,251.36218 L 98.31303,251.36218 L 98.31303,250.36218 L 120.31303,250.36218 L 120.31303,240.36218 L 88.31303,240.36218 z "
         style="opacity:1;fill:#999999;fill-opacity:1;stroke:none;stroke-width:0.5;stroke-linecap:round;stroke-linejoin:round;stroke-miterlimit:4;stroke-dasharray:none;stroke-dashoffset:0;stroke-opacity:1" />
      <path
         id="rect2234"
         d="M 121.31303,207.36218 L 121.31303,239.36218 L 153.31303,239.36218 L 153.31303,207.36218 L 121.31303,207.36218 z M 137.31303,217.36218 L 138.31303,217.36218 L 138.31303,230.36218 L 137.31303,230.36218 L 137.31303,217.36218 z "
         style="opacity:1;fill:#999999;fill-opacity:1;stroke:none;stroke-width:0.5;stroke-linecap:round;stroke-linejoin:round;stroke-miterlimit:4;stroke-dasharray:none;stroke-dashoffset:0;stroke-opacity:1" />
      <path
         id="rect2238"
         d="M 121.31303,240.36218 L 121.31303,272.36218 L 131.31303,272.36218 L 131.31303,250.36218 L 132.31303,250.36218 L 132.31303,272.36218 L 142.31303,272.36218 L 142.31303,250.36218 L 143.31303,250.36218 L 143.31303,272.36218 L 153.31303,272.36218 L 153.31303,240.36218 L 121.31303,240.36218 z "
         style="opacity:1;fill:#999999;fill-opacity:1;stroke:none;stroke-width:0.5;stroke-linecap:round;stroke-linejoin:round;stroke-miterlimit:4;stroke-dasharray:none;stroke-dashoffset:0;stroke-opacity:1" />
      <path
         id="rect2244"
         d="M 88.31303,207.36218 L 88.31303,239.36218 L 120.31303,239.36218 L 120.31303,229.36218 L 98.31303,229.36218 L 98.31303,228.36218 L 120.31303,228.36218 L 120.31303,218.36218 L 98.31303,218.36218 L 98.31303,217.36218 L 120.31303,217.36218 L 120.31303,207.36218 L 88.31303,207.36218 z "
         style="opacity:1;fill:#999999;fill-opacity:1;stroke:none;stroke-width:0.5;stroke-linecap:round;stroke-linejoin:round;stroke-miterlimit:4;stroke-dasharray:none;stroke-dashoffset:0;stroke-opacity:1" />
      <path
         style="opacity:1;fill:#999999;fill-opacity:1;stroke:none;stroke-width:0.5;stroke-linecap:round;stroke-linejoin:round;stroke-miterlimit:4;stroke-dasharray:none;stroke-dashoffset:0;stroke-opacity:1"
         d="M 154.31303,240.36218 L 154.31303,272.36218 L 186.31303,272.36218 L 186.31303,262.36218 L 164.31303,262.36218 L 164.31303,261.36218 L 186.31303,261.36218 L 186.31303,251.36218 L 164.31303,251.36218 L 164.31303,250.36218 L 186.31303,250.36218 L 186.31303,240.36218 L 154.31303,240.36218 z "
         id="path2747" />
    </g>
    <g
       id="g2307"
       transform="translate(122.68697,88.000003)">
      <path
         style="opacity:1;fill:#535d6c;fill-opacity:1;stroke:none;stroke-width:0.5;stroke-linecap:round;stroke-linejoin:round;stroke-miterlimit:4;stroke-dasharray:none;stroke-dashoffset:0;stroke-opacity:1"
         d="M 55,187.36218 L 55,197.36218 L 65,197.36218 L 77,197.36218 L 77,198.36218 L 65,198.36218 L 55,198.36218 L 55,210.36218 L 55,219.36218 L 68.53125,219.36218 L 75.999999,219.36218 L 75.999999,209.36218 L 68.53125,209.36218 L 65,209.36218 L 65,208.36218 L 77,208.36218 L 77,209.36218 L 77,211.36219 L 77,219.36218 L 87,219.36218 L 87,211.36219 L 87,209.36218 L 87,196.36218 L 87,187.36218 L 77,187.36218 L 65,187.36218 L 55,187.36218 z "
         id="path2250" />
      <path
         style="opacity:1;fill:#535d6c;fill-opacity:1;stroke:none;stroke-width:0.5;stroke-linecap:round;stroke-linejoin:round;stroke-miterlimit:4;stroke-dasharray:none;stroke-dashoffset:0;stroke-opacity:1"
         d="M 89,187.36218 L 89,219.36218 L 121,219.36218 L 121,187.36218 L 111,187.36218 L 111,209.36218 L 110,209.36218 L 110,187.36218 L 100,187.36218 L 100,209.36218 L 99,209.36218 L 99,187.36218 L 89,187.36218 z "
         id="path2261" />
      <path
         style="opacity:1;fill:#535d6c;fill-opacity:1;stroke:none;stroke-width:0.5;stroke-linecap:round;stroke-linejoin:round;stroke-miterlimit:4;stroke-dasharray:none;stroke-dashoffset:0;stroke-opacity:1"
         d="M 123,187.36218 L 123,219.36218 L 133,219.36218 L 133,197.36218 L 134,197.36218 L 134,219.36218 L 144,219.36218 L 144,197.36218 L 145,197.36218 L 145,219.36218 L 155,219.36218 L 155,187.36218 L 123,187.36218 z "
         id="path2263" />
    </g>
    <g
       id="g2295"
       transform="translate(122.68697,50.000003)">
      <path
         id="path2291"
         d="M 55,57.362183 L 55,67.362183 L 65,67.362183 L 77,67.362183 L 77,68.362183 L 65,68.362183 L 55,68.362183 L 55,80.362183 L 55,89.362183 L 68.53125,89.362183 L 75.999999,89.362183 L 75.999999,79.362183 L 68.53125,79.362183 L 65,79.362183 L 65,78.362183 L 77,78.362183 L 77,79.362183 L 77,81.362193 L 77,89.362183 L 87,89.362183 L 87,81.362193 L 87,79.362183 L 87,66.362183 L 87,57.362183 L 77,57.362183 L 65,57.362183 L 55,57.362183 z "
         style="opacity:1;fill:#535d6c;fill-opacity:1;stroke:none;stroke-width:0.5;stroke-linecap:round;stroke-linejoin:round;stroke-miterlimit:4;stroke-dasharray:none;stroke-dashoffset:0;stroke-opacity:1" />
      <path
         id="path2293"
         d="M 55,90.362186 L 55,122.36218 L 87,122.36218 L 87,90.362186 L 77,90.362186 L 77,112.36218 L 76,112.36218 L 76,90.362186 L 66,90.362186 L 66,112.36218 L 65,112.36218 L 65,90.362186 L 55,90.362186 z "
         style="opacity:1;fill:#535d6c;fill-opacity:1;stroke:none;stroke-width:0.5;stroke-linecap:round;stroke-linejoin:round;stroke-miterlimit:4;stroke-dasharray:none;stroke-dashoffset:0;stroke-opacity:1" />
    </g>
    <path
       id="path2312"
       d="M 177.68697,45.362183 L 177.68697,55.362183 L 187.68697,55.362183 L 199.68697,55.362183 L 199.68697,56.362183 L 187.68697,56.362183 L 177.68697,56.362183 L 177.68697,68.362183 L 177.68697,77.362183 L 191.21822,77.362183 L 198.68697,77.362183 L 198.68697,67.362183 L 191.21822,67.362183 L 187.68697,67.362183 L 187.68697,66.362183 L 199.68697,66.362183 L 199.68697,67.362183 L 199.68697,69.362193 L 199.68697,77.362183 L 209.68697,77.362183 L 209.68697,69.362193 L 209.68697,67.362183 L 209.68697,54.362183 L 209.68697,45.362183 L 199.68697,45.362183 L 187.68697,45.362183 L 177.68697,45.362183 z "
       style="opacity:1;fill:#535d6c;fill-opacity:1;stroke:none;stroke-width:0.5;stroke-linecap:round;stroke-linejoin:round;stroke-miterlimit:4;stroke-dasharray:none;stroke-dashoffset:0;stroke-opacity:1" />
    <path
       style="font-size:10px;font-style:normal;font-weight:normal;fill:#535d6c;fill-opacity:1;stroke:none;stroke-width:1px;stroke-linecap:butt;stroke-linejoin:miter;stroke-opacity:1;font-family:Arial"
       d="M 127.01172,63.927917 L 127.01172,56.769714 L 127.89062,56.769714 L 127.89062,63.927917 L 127.01172,63.927917 M 128.93066,61.335144 C 128.93066,60.374861 129.19759,59.663599 129.73145,59.201355 C 130.17741,58.817246 130.72103,58.625188 131.3623,58.625183 C 132.07519,58.625188 132.65787,58.859563 133.11035,59.328308 C 133.56282,59.793807 133.78906,60.438338 133.78906,61.261902 C 133.78906,61.929222 133.68815,62.454937 133.48633,62.83905 C 133.28776,63.21991 132.99641,63.516134 132.6123,63.727722 C 132.23144,63.939311 131.81478,64.045105 131.3623,64.045105 C 130.63639,64.045105 130.04883,63.812358 129.59961,63.346863 C 129.15365,62.881369 128.93066,62.210797 128.93066,61.335144 M 129.83398,61.335144 C 129.83398,61.999208 129.97884,62.497255 130.26855,62.829285 C 130.55827,63.158061 130.92285,63.322449 131.3623,63.322449 C 131.7985,63.322449 132.16145,63.156434 132.45117,62.824402 C 132.74088,62.492372 132.88574,61.986188 132.88574,61.305847 C 132.88574,60.664574 132.73925,60.179549 132.44629,59.850769 C 132.15657,59.518742 131.79524,59.352727 131.3623,59.352722 C 130.92285,59.352727 130.55827,59.517115 130.26855,59.845886 C 129.97884,60.174666 129.83398,60.671085 129.83398,61.335144 M 134.66309,64.357605 L 135.51758,64.484558 C 135.55338,64.748229 135.65267,64.940286 135.81543,65.06073 C 136.03353,65.223489 136.33138,65.304869 136.70898,65.304871 C 137.11588,65.304869 137.43001,65.223489 137.65137,65.06073 C 137.87272,64.897969 138.02246,64.670104 138.10059,64.377136 C 138.14615,64.1981 138.16731,63.822123 138.16406,63.249207 C 137.77994,63.701681 137.30143,63.927917 136.72852,63.927917 C 136.01562,63.927917 135.46387,63.670756 135.07324,63.156433 C 134.68262,62.642111 134.4873,62.02525 134.4873,61.305847 C 134.4873,60.811059 134.57682,60.35533 134.75586,59.93866 C 134.9349,59.518742 135.19368,59.194849 135.53223,58.96698 C 135.87402,58.739121 136.27441,58.625188 136.7334,58.625183 C 137.34537,58.625188 137.84993,58.872584 138.24707,59.367371 L 138.24707,58.742371 L 139.05762,58.742371 L 139.05762,63.224792 C 139.05761,64.032084 138.9746,64.603373 138.80859,64.93866 C 138.64583,65.2772 138.38541,65.544127 138.02734,65.739441 C 137.67252,65.934751 137.2347,66.032408 136.71387,66.03241 C 136.09538,66.032408 135.5957,65.892434 135.21484,65.612488 C 134.83398,65.335794 134.65006,64.9175 134.66309,64.357605 M 135.39062,61.242371 C 135.39062,61.922711 135.52571,62.41913 135.7959,62.731628 C 136.06608,63.044129 136.40462,63.200379 136.81152,63.200378 C 137.21517,63.200379 137.55371,63.045757 137.82715,62.736511 C 138.10058,62.424013 138.2373,61.935732 138.2373,61.271667 C 138.2373,60.636905 138.0957,60.15839 137.8125,59.836121 C 137.53255,59.513859 137.19401,59.352727 136.79688,59.352722 C 136.40625,59.352727 136.07422,59.512232 135.80078,59.831238 C 135.52734,60.146997 135.39062,60.617374 135.39062,61.242371 M 140.06348,61.335144 C 140.06348,60.374861 140.3304,59.663599 140.86426,59.201355 C 141.31022,58.817246 141.85384,58.625188 142.49512,58.625183 C 143.208,58.625188 143.79069,58.859563 144.24316,59.328308 C 144.69563,59.793807 144.92187,60.438338 144.92188,61.261902 C 144.92187,61.929222 144.82096,62.454937 144.61914,62.83905 C 144.42057,63.21991 144.12923,63.516134 143.74512,63.727722 C 143.36425,63.939311 142.94759,64.045105 142.49512,64.045105 C 141.7692,64.045105 141.18164,63.812358 140.73242,63.346863 C 140.28646,62.881369 140.06348,62.210797 140.06348,61.335144 M 140.9668,61.335144 C 140.9668,61.999208 141.11165,62.497255 141.40137,62.829285 C 141.69108,63.158061 142.05566,63.322449 142.49512,63.322449 C 142.93131,63.322449 143.29427,63.156434 143.58398,62.824402 C 143.87369,62.492372 144.01855,61.986188 144.01855,61.305847 C 144.01855,60.664574 143.87207,60.179549 143.5791,59.850769 C 143.28938,59.518742 142.92806,59.352727 142.49512,59.352722 C 142.05566,59.352727 141.69108,59.517115 141.40137,59.845886 C 141.11165,60.174666 140.9668,60.671085 140.9668,61.335144"
       id="text2314" />
    <path
       style="font-size:10px;font-style:normal;font-weight:normal;fill:#535d6c;fill-opacity:1;stroke:none;stroke-width:1px;stroke-linecap:butt;stroke-linejoin:miter;stroke-opacity:1;font-family:Arial"
       d="M 64.672852,142.97253 L 65.541992,142.83582 C 65.590819,143.18412 65.72591,143.45105 65.947266,143.6366 C 66.171873,143.82214 66.484373,143.91492 66.884766,143.91492 C 67.288409,143.91492 67.587887,143.83354 67.783203,143.67078 C 67.978512,143.50476 68.076168,143.31108 68.076172,143.08972 C 68.076168,142.89116 67.989905,142.73491 67.817383,142.62097 C 67.696937,142.54285 67.397458,142.44356 66.918945,142.32312 C 66.274412,142.16036 65.826821,142.02039 65.576172,141.9032 C 65.328775,141.78276 65.139973,141.61837 65.009766,141.41003 C 64.882812,141.19845 64.819335,140.9657 64.819336,140.71179 C 64.819335,140.48068 64.871419,140.26746 64.975586,140.07214 C 65.083007,139.87358 65.227864,139.70919 65.410156,139.57898 C 65.546874,139.47807 65.732421,139.39344 65.966797,139.32507 C 66.204425,139.25346 66.458331,139.21766 66.728516,139.21765 C 67.135414,139.21766 67.491859,139.27625 67.797852,139.39343 C 68.107093,139.51063 68.334957,139.67013 68.481445,139.87195 C 68.627925,140.07052 68.728837,140.33745 68.78418,140.67273 L 67.924805,140.78992 C 67.885739,140.52299 67.771806,140.31466 67.583008,140.16492 C 67.397458,140.01518 67.133786,139.94031 66.791992,139.94031 C 66.388344,139.94031 66.100259,140.00704 65.927734,140.1405 C 65.755207,140.27397 65.668944,140.43022 65.668945,140.60925 C 65.668944,140.72319 65.704751,140.82573 65.776367,140.91687 C 65.84798,141.01127 65.960285,141.0894 66.113281,141.15125 C 66.20117,141.1838 66.459959,141.25867 66.889648,141.37585 C 67.51139,141.54187 67.944332,141.67859 68.188477,141.78601 C 68.435868,141.89018 68.629553,142.04317 68.769531,142.245 C 68.909501,142.44682 68.979488,142.69747 68.979492,142.99695 C 68.979488,143.28992 68.893225,143.56661 68.720703,143.82703 C 68.551428,144.08419 68.30566,144.28438 67.983398,144.42761 C 67.66113,144.56759 67.296547,144.63757 66.889648,144.63757 C 66.215818,144.63757 65.701496,144.4976 65.34668,144.21765 C 64.995117,143.9377 64.770507,143.52267 64.672852,142.97253 M 73.574219,142.85046 L 74.482422,142.96277 C 74.339188,143.49337 74.073889,143.90515 73.686523,144.19812 C 73.29915,144.49109 72.804359,144.63757 72.202148,144.63757 C 71.443683,144.63757 70.84147,144.40483 70.395508,143.93933 C 69.952799,143.47058 69.731445,142.81466 69.731445,141.97156 C 69.731445,141.09917 69.956054,140.42208 70.405273,139.94031 C 70.854491,139.45854 71.437172,139.21766 72.15332,139.21765 C 72.846676,139.21766 73.413082,139.45366 73.852539,139.92566 C 74.291987,140.39767 74.511714,141.06173 74.511719,141.91785 C 74.511714,141.96993 74.510086,142.04806 74.506836,142.15222 L 70.639648,142.15222 C 70.672199,142.72188 70.833332,143.15808 71.123047,143.46082 C 71.412758,143.76355 71.774086,143.91492 72.207031,143.91492 C 72.529294,143.91492 72.804359,143.83028 73.032227,143.66101 C 73.260087,143.49174 73.440751,143.22156 73.574219,142.85046 M 70.688477,141.42957 L 73.583984,141.42957 C 73.544918,140.99337 73.434241,140.66622 73.251953,140.44812 C 72.972002,140.10958 72.609046,139.94031 72.163086,139.94031 C 71.759438,139.94031 71.419269,140.0754 71.142578,140.34558 C 70.869139,140.61577 70.717772,140.9771 70.688477,141.42957 M 78.974609,142.62097 L 79.838867,142.73328 C 79.744461,143.32898 79.501949,143.7961 79.111328,144.13464 C 78.723955,144.46993 78.247067,144.63757 77.680664,144.63757 C 76.971027,144.63757 76.399738,144.40645 75.966797,143.94421 C 75.537109,143.47872 75.322265,142.81303 75.322266,141.94714 C 75.322265,141.38725 75.415039,140.89734 75.600586,140.47742 C 75.786132,140.0575 76.067707,139.74337 76.445312,139.53503 C 76.82617,139.32345 77.239581,139.21766 77.685547,139.21765 C 78.248695,139.21766 78.709306,139.36089 79.067383,139.64734 C 79.425451,139.93055 79.654943,140.33419 79.755859,140.85828 L 78.901367,140.99011 C 78.819983,140.64181 78.675126,140.37976 78.466797,140.20398 C 78.261715,140.0282 78.012692,139.94031 77.719727,139.94031 C 77.277016,139.94031 76.917316,140.09982 76.640625,140.41882 C 76.363931,140.73458 76.225585,141.23588 76.225586,141.92273 C 76.225585,142.61935 76.359048,143.12553 76.625977,143.44128 C 76.892902,143.75704 77.241209,143.91492 77.670898,143.91492 C 78.015947,143.91492 78.304033,143.80912 78.535156,143.59753 C 78.766272,143.38595 78.912756,143.06043 78.974609,142.62097 M 80.263672,141.92761 C 80.263672,140.96733 80.530598,140.25607 81.064453,139.79382 C 81.510415,139.40971 82.054034,139.21766 82.695312,139.21765 C 83.4082,139.21766 83.990881,139.45203 84.443359,139.92078 C 84.895828,140.38628 85.122065,141.03081 85.12207,141.85437 C 85.122065,142.52169 85.021154,143.04741 84.819336,143.43152 C 84.620764,143.81238 84.329423,144.1086 83.945312,144.32019 C 83.564449,144.53178 83.147783,144.63757 82.695312,144.63757 C 81.969399,144.63757 81.381834,144.40483 80.932617,143.93933 C 80.486653,143.47384 80.263672,142.80327 80.263672,141.92761 M 81.166992,141.92761 C 81.166991,142.59168 81.311848,143.08972 81.601562,143.42175 C 81.891274,143.75053 82.255857,143.91492 82.695312,143.91492 C 83.131507,143.91492 83.494463,143.7489 83.78418,143.41687 C 84.073889,143.08484 84.218746,142.57866 84.21875,141.89832 C 84.218746,141.25704 84.072261,140.77202 83.779297,140.44324 C 83.48958,140.11121 83.128252,139.9452 82.695312,139.94519 C 82.255857,139.9452 81.891274,140.10958 81.601562,140.43835 C 81.311848,140.76713 81.166991,141.26355 81.166992,141.92761 M 86.157227,144.52039 L 86.157227,139.33484 L 86.948242,139.33484 L 86.948242,140.07214 C 87.3291,139.50249 87.879229,139.21766 88.598633,139.21765 C 88.911129,139.21766 89.197587,139.27462 89.458008,139.38855 C 89.721675,139.49923 89.918615,139.64572 90.048828,139.828 C 90.179032,140.0103 90.270178,140.22677 90.322266,140.47742 C 90.354813,140.64018 90.371089,140.92501 90.371094,141.33191 L 90.371094,144.52039 L 89.492188,144.52039 L 89.492188,141.36609 C 89.492184,141.00802 89.458004,140.74109 89.389648,140.56531 C 89.321285,140.38628 89.199215,140.24467 89.023438,140.1405 C 88.850908,140.03309 88.647458,139.97937 88.413086,139.97937 C 88.038734,139.97937 87.714842,140.09819 87.441406,140.33582 C 87.171222,140.57345 87.036131,141.0243 87.036133,141.68835 L 87.036133,144.52039 L 86.157227,144.52039 M 95.087891,144.52039 L 95.087891,143.86609 C 94.759111,144.38041 94.275713,144.63757 93.637695,144.63757 C 93.224282,144.63757 92.843423,144.52364 92.495117,144.29578 C 92.150064,144.06791 91.88151,143.75053 91.689453,143.34363 C 91.500651,142.93347 91.40625,142.4631 91.40625,141.9325 C 91.40625,141.41492 91.492513,140.94617 91.665039,140.52625 C 91.837564,140.10307 92.096353,139.77918 92.441406,139.55457 C 92.786457,139.32996 93.172198,139.21766 93.598633,139.21765 C 93.91113,139.21766 94.18945,139.28439 94.433594,139.41785 C 94.677731,139.54806 94.876298,139.71896 95.029297,139.93054 L 95.029297,137.36218 L 95.90332,137.36218 L 95.90332,144.52039 L 95.087891,144.52039 M 92.30957,141.9325 C 92.309569,142.59656 92.449543,143.09298 92.729492,143.42175 C 93.009438,143.75053 93.339841,143.91492 93.720703,143.91492 C 94.104815,143.91492 94.430335,143.75867 94.697266,143.44617 C 94.967444,143.13041 95.102535,142.65027 95.102539,142.00574 C 95.102535,141.29611 94.965816,140.77527 94.692383,140.44324 C 94.418942,140.11121 94.082028,139.9452 93.681641,139.94519 C 93.291013,139.9452 92.963865,140.1047 92.700195,140.42371 C 92.439777,140.74272 92.309569,141.24565 92.30957,141.9325 M 100.67383,143.88074 C 100.3483,144.15743 100.03418,144.35274 99.731445,144.46667 C 99.431963,144.58061 99.109698,144.63757 98.764648,144.63757 C 98.194985,144.63757 97.75716,144.49923 97.451172,144.22253 C 97.145182,143.94259 96.992187,143.58614 96.992188,143.1532 C 96.992187,142.89929 97.049153,142.66817 97.163086,142.45984 C 97.280273,142.24825 97.43164,142.07898 97.617188,141.95203 C 97.805988,141.82508 98.017577,141.72905 98.251953,141.66394 C 98.424477,141.61837 98.684894,141.57443 99.033203,141.5321 C 99.742835,141.44747 100.2653,141.34656 100.60059,141.22937 C 100.60384,141.10893 100.60546,141.03243 100.60547,140.99988 C 100.60546,140.64181 100.52246,140.38953 100.35645,140.24304 C 100.13183,140.04448 99.798174,139.9452 99.355469,139.94519 C 98.942055,139.9452 98.636066,140.01844 98.4375,140.16492 C 98.242186,140.30815 98.097329,140.56368 98.00293,140.93152 L 97.143555,140.81433 C 97.221679,140.4465 97.35026,140.15027 97.529297,139.92566 C 97.708332,139.6978 97.967121,139.52365 98.305664,139.4032 C 98.644204,139.27951 99.036456,139.21766 99.482422,139.21765 C 99.925127,139.21766 100.28483,139.26974 100.56152,139.3739 C 100.83821,139.47807 101.04166,139.60991 101.17188,139.76941 C 101.30208,139.92566 101.39322,140.12423 101.44531,140.36511 C 101.4746,140.51486 101.48925,140.78504 101.48926,141.17566 L 101.48926,142.34753 C 101.48925,143.16459 101.50716,143.68217 101.54297,143.90027 C 101.58203,144.11511 101.6569,144.32182 101.76758,144.52039 L 100.84961,144.52039 C 100.75846,144.33809 100.69987,144.12488 100.67383,143.88074 M 100.60059,141.91785 C 100.28157,142.04806 99.803057,142.15873 99.165039,142.24988 C 98.803709,142.30196 98.548175,142.36056 98.398438,142.42566 C 98.248696,142.49077 98.133137,142.58679 98.051758,142.71375 C 97.970376,142.83744 97.929686,142.97579 97.929688,143.12878 C 97.929686,143.36316 98.017577,143.55847 98.193359,143.71472 C 98.372394,143.87097 98.63281,143.9491 98.974609,143.9491 C 99.313148,143.9491 99.614255,143.87586 99.87793,143.72937 C 100.1416,143.57963 100.33528,143.37618 100.45898,143.11902 C 100.55338,142.92045 100.60058,142.62748 100.60059,142.24011 L 100.60059,141.91785 M 102.84668,144.52039 L 102.84668,139.33484 L 103.6377,139.33484 L 103.6377,140.12097 C 103.83952,139.75314 104.02506,139.51063 104.19434,139.39343 C 104.36686,139.27625 104.55566,139.21766 104.76074,139.21765 C 105.05696,139.21766 105.35807,139.31206 105.66406,139.50085 L 105.36133,140.31628 C 105.14648,140.18934 104.93164,140.12586 104.7168,140.12585 C 104.52474,140.12586 104.35221,140.18445 104.19922,140.30164 C 104.04622,140.41557 103.93717,140.57508 103.87207,140.78015 C 103.77441,141.09265 103.72558,141.43445 103.72559,141.80554 L 103.72559,144.52039 L 102.84668,144.52039 M 106.15723,146.51746 L 106.05957,145.69226 C 106.25163,145.74434 106.41927,145.77038 106.5625,145.77039 C 106.75781,145.77038 106.91406,145.73783 107.03125,145.67273 C 107.14844,145.60762 107.24446,145.51648 107.31934,145.39929 C 107.37467,145.3114 107.46419,145.0933 107.58789,144.745 C 107.60416,144.69617 107.63021,144.62455 107.66602,144.53015 L 105.69824,139.33484 L 106.64551,139.33484 L 107.72461,142.33777 C 107.86458,142.71863 107.98991,143.11902 108.10059,143.53894 C 108.20149,143.1353 108.32194,142.74142 108.46191,142.3573 L 109.57031,139.33484 L 110.44922,139.33484 L 108.47656,144.60828 C 108.26497,145.17794 108.10058,145.57019 107.9834,145.78503 C 107.82715,146.07475 107.64811,146.28633 107.44629,146.4198 C 107.24446,146.55652 107.00358,146.62488 106.72363,146.62488 C 106.55436,146.62488 106.36556,146.58907 106.15723,146.51746 M 113.97461,138.37292 L 113.97461,137.36218 L 114.85352,137.36218 L 114.85352,138.37292 L 113.97461,138.37292 M 113.97461,144.52039 L 113.97461,139.33484 L 114.85352,139.33484 L 114.85352,144.52039 L 113.97461,144.52039 M 119.56055,144.52039 L 119.56055,143.86609 C 119.23177,144.38041 118.74837,144.63757 118.11035,144.63757 C 117.69694,144.63757 117.31608,144.52364 116.96777,144.29578 C 116.62272,144.06791 116.35417,143.75053 116.16211,143.34363 C 115.97331,142.93347 115.87891,142.4631 115.87891,141.9325 C 115.87891,141.41492 115.96517,140.94617 116.1377,140.52625 C 116.31022,140.10307 116.56901,139.77918 116.91406,139.55457 C 117.25911,139.32996 117.64485,139.21766 118.07129,139.21765 C 118.38379,139.21766 118.66211,139.28439 118.90625,139.41785 C 119.15039,139.54806 119.34895,139.71896 119.50195,139.93054 L 119.50195,137.36218 L 120.37598,137.36218 L 120.37598,144.52039 L 119.56055,144.52039 M 116.78223,141.9325 C 116.78223,142.59656 116.9222,143.09298 117.20215,143.42175 C 117.48209,143.75053 117.8125,143.91492 118.19336,143.91492 C 118.57747,143.91492 118.90299,143.75867 119.16992,143.44617 C 119.4401,143.13041 119.57519,142.65027 119.5752,142.00574 C 119.57519,141.29611 119.43847,140.77527 119.16504,140.44324 C 118.8916,140.11121 118.55468,139.9452 118.1543,139.94519 C 117.76367,139.9452 117.43652,140.1047 117.17285,140.42371 C 116.91243,140.74272 116.78223,141.24565 116.78223,141.9325 M 125.3125,142.85046 L 126.2207,142.96277 C 126.07747,143.49337 125.81217,143.90515 125.4248,144.19812 C 125.03743,144.49109 124.54264,144.63757 123.94043,144.63757 C 123.18196,144.63757 122.57975,144.40483 122.13379,143.93933 C 121.69108,143.47058 121.46973,142.81466 121.46973,141.97156 C 121.46973,141.09917 121.69434,140.42208 122.14355,139.94031 C 122.59277,139.45854 123.17545,139.21766 123.8916,139.21765 C 124.58496,139.21766 125.15136,139.45366 125.59082,139.92566 C 126.03027,140.39767 126.24999,141.06173 126.25,141.91785 C 126.24999,141.96993 126.24837,142.04806 126.24512,142.15222 L 122.37793,142.15222 C 122.41048,142.72188 122.57161,143.15808 122.86133,143.46082 C 123.15104,143.76355 123.51237,143.91492 123.94531,143.91492 C 124.26757,143.91492 124.54264,143.83028 124.77051,143.66101 C 124.99837,143.49174 125.17903,143.22156 125.3125,142.85046 M 122.42676,141.42957 L 125.32227,141.42957 C 125.2832,140.99337 125.17252,140.66622 124.99023,140.44812 C 124.71028,140.10958 124.34733,139.94031 123.90137,139.94031 C 123.49772,139.94031 123.15755,140.0754 122.88086,140.34558 C 122.60742,140.61577 122.45605,140.9771 122.42676,141.42957 M 127.3291,144.52039 L 127.3291,139.33484 L 128.12012,139.33484 L 128.12012,140.07214 C 128.50097,139.50249 129.0511,139.21766 129.77051,139.21765 C 130.083,139.21766 130.36946,139.27462 130.62988,139.38855 C 130.89355,139.49923 131.09049,139.64572 131.2207,139.828 C 131.35091,140.0103 131.44205,140.22677 131.49414,140.47742 C 131.52669,140.64018 131.54296,140.92501 131.54297,141.33191 L 131.54297,144.52039 L 130.66406,144.52039 L 130.66406,141.36609 C 130.66406,141.00802 130.62988,140.74109 130.56152,140.56531 C 130.49316,140.38628 130.37109,140.24467 130.19531,140.1405 C 130.02278,140.03309 129.81933,139.97937 129.58496,139.97937 C 129.21061,139.97937 128.88672,140.09819 128.61328,140.33582 C 128.3431,140.57345 128.20801,141.0243 128.20801,141.68835 L 128.20801,144.52039 L 127.3291,144.52039 M 134.81445,143.73425 L 134.94141,144.51062 C 134.69401,144.5627 134.47265,144.58875 134.27734,144.58875 C 133.95833,144.58875 133.71094,144.53829 133.53516,144.43738 C 133.35937,144.33647 133.23568,144.20463 133.16406,144.04187 C 133.09245,143.87586 133.05664,143.52918 133.05664,143.00183 L 133.05664,140.01843 L 132.41211,140.01843 L 132.41211,139.33484 L 133.05664,139.33484 L 133.05664,138.05066 L 133.93066,137.52332 L 133.93066,139.33484 L 134.81445,139.33484 L 134.81445,140.01843 L 133.93066,140.01843 L 133.93066,143.05066 C 133.93066,143.30131 133.94531,143.46244 133.97461,143.53406 C 134.00716,143.60567 134.05762,143.66264 134.12598,143.70496 C 134.19759,143.74727 134.2985,143.76843 134.42871,143.76843 C 134.52636,143.76843 134.65495,143.75704 134.81445,143.73425 M 135.67383,138.37292 L 135.67383,137.36218 L 136.55273,137.36218 L 136.55273,138.37292 L 135.67383,138.37292 M 135.67383,144.52039 L 135.67383,139.33484 L 136.55273,139.33484 L 136.55273,144.52039 L 135.67383,144.52039 M 139.81445,143.73425 L 139.94141,144.51062 C 139.69401,144.5627 139.47265,144.58875 139.27734,144.58875 C 138.95833,144.58875 138.71094,144.53829 138.53516,144.43738 C 138.35937,144.33647 138.23568,144.20463 138.16406,144.04187 C 138.09245,143.87586 138.05664,143.52918 138.05664,143.00183 L 138.05664,140.01843 L 137.41211,140.01843 L 137.41211,139.33484 L 138.05664,139.33484 L 138.05664,138.05066 L 138.93066,137.52332 L 138.93066,139.33484 L 139.81445,139.33484 L 139.81445,140.01843 L 138.93066,140.01843 L 138.93066,143.05066 C 138.93066,143.30131 138.94531,143.46244 138.97461,143.53406 C 139.00716,143.60567 139.05762,143.66264 139.12598,143.70496 C 139.19759,143.74727 139.2985,143.76843 139.42871,143.76843 C 139.52636,143.76843 139.65495,143.75704 139.81445,143.73425 M 140.62988,146.51746 L 140.53223,145.69226 C 140.72428,145.74434 140.89193,145.77038 141.03516,145.77039 C 141.23047,145.77038 141.38672,145.73783 141.50391,145.67273 C 141.62109,145.60762 141.71712,145.51648 141.79199,145.39929 C 141.84733,145.3114 141.93685,145.0933 142.06055,144.745 C 142.07682,144.69617 142.10286,144.62455 142.13867,144.53015 L 140.1709,139.33484 L 141.11816,139.33484 L 142.19727,142.33777 C 142.33724,142.71863 142.46256,143.11902 142.57324,143.53894 C 142.67415,143.1353 142.79459,142.74142 142.93457,142.3573 L 144.04297,139.33484 L 144.92188,139.33484 L 142.94922,144.60828 C 142.73763,145.17794 142.57324,145.57019 142.45605,145.78503 C 142.2998,146.07475 142.12077,146.28633 141.91895,146.4198 C 141.71712,146.55652 141.47624,146.62488 141.19629,146.62488 C 141.02702,146.62488 140.83822,146.58907 140.62988,146.51746"
       id="text2318" />
    <path
       style="font-size:10px;font-style:normal;font-weight:normal;text-align:end;text-anchor:end;fill:#535d6c;fill-opacity:1;stroke:none;stroke-width:1px;stroke-linecap:butt;stroke-linejoin:miter;stroke-opacity:1;font-family:Arial"
       d="M 108.14941,229.52039 L 108.14941,222.36218 L 109.02832,222.36218 L 109.02832,229.52039 L 108.14941,229.52039 M 110.06836,226.92761 C 110.06836,225.96733 110.33529,225.25607 110.86914,224.79382 C 111.3151,224.40971 111.85872,224.21766 112.5,224.21765 C 113.21289,224.21766 113.79557,224.45203 114.24805,224.92078 C 114.70052,225.38628 114.92675,226.03081 114.92676,226.85437 C 114.92675,227.52169 114.82584,228.04741 114.62402,228.43152 C 114.42545,228.81238 114.13411,229.1086 113.75,229.32019 C 113.36914,229.53178 112.95247,229.63757 112.5,229.63757 C 111.77409,229.63757 111.18652,229.40483 110.7373,228.93933 C 110.29134,228.47384 110.06836,227.80327 110.06836,226.92761 M 110.97168,226.92761 C 110.97168,227.59168 111.11654,228.08972 111.40625,228.42175 C 111.69596,228.75053 112.06054,228.91492 112.5,228.91492 C 112.93619,228.91492 113.29915,228.7489 113.58887,228.41687 C 113.87858,228.08484 114.02343,227.57866 114.02344,226.89832 C 114.02343,226.25704 113.87695,225.77202 113.58398,225.44324 C 113.29427,225.11121 112.93294,224.9452 112.5,224.94519 C 112.06054,224.9452 111.69596,225.10958 111.40625,225.43835 C 111.11654,225.76713 110.97168,226.26355 110.97168,226.92761 M 115.80078,229.95007 L 116.65527,230.07703 C 116.69108,230.3407 116.79036,230.53275 116.95312,230.6532 C 117.17122,230.81596 117.46907,230.89734 117.84668,230.89734 C 118.25358,230.89734 118.56771,230.81596 118.78906,230.6532 C 119.01041,230.49044 119.16015,230.26257 119.23828,229.9696 C 119.28385,229.79057 119.30501,229.41459 119.30176,228.84167 C 118.91764,229.29415 118.43912,229.52039 117.86621,229.52039 C 117.15332,229.52039 116.60156,229.26322 116.21094,228.7489 C 115.82031,228.23458 115.625,227.61772 115.625,226.89832 C 115.625,226.40353 115.71452,225.9478 115.89355,225.53113 C 116.07259,225.11121 116.33138,224.78732 116.66992,224.55945 C 117.01172,224.33159 117.41211,224.21766 117.87109,224.21765 C 118.48307,224.21766 118.98763,224.46505 119.38477,224.95984 L 119.38477,224.33484 L 120.19531,224.33484 L 120.19531,228.81726 C 120.19531,229.62455 120.1123,230.19584 119.94629,230.53113 C 119.78352,230.86967 119.52311,231.1366 119.16504,231.33191 C 118.81022,231.52722 118.37239,231.62488 117.85156,231.62488 C 117.23307,231.62488 116.7334,231.4849 116.35254,231.20496 C 115.97168,230.92826 115.78776,230.50997 115.80078,229.95007 M 116.52832,226.83484 C 116.52832,227.51518 116.66341,228.0116 116.93359,228.3241 C 117.20377,228.6366 117.54232,228.79285 117.94922,228.79285 C 118.35286,228.79285 118.6914,228.63823 118.96484,228.32898 C 119.23828,228.01648 119.375,227.5282 119.375,226.86414 C 119.375,226.22937 119.23339,225.75086 118.9502,225.42859 C 118.67024,225.10633 118.3317,224.9452 117.93457,224.94519 C 117.54394,224.9452 117.21191,225.1047 116.93848,225.42371 C 116.66504,225.73947 116.52832,226.20984 116.52832,226.83484 M 121.20117,226.92761 C 121.20117,225.96733 121.4681,225.25607 122.00195,224.79382 C 122.44792,224.40971 122.99153,224.21766 123.63281,224.21765 C 124.3457,224.21766 124.92838,224.45203 125.38086,224.92078 C 125.83333,225.38628 126.05957,226.03081 126.05957,226.85437 C 126.05957,227.52169 125.95865,228.04741 125.75684,228.43152 C 125.55826,228.81238 125.26692,229.1086 124.88281,229.32019 C 124.50195,229.53178 124.08528,229.63757 123.63281,229.63757 C 122.9069,229.63757 122.31933,229.40483 121.87012,228.93933 C 121.42415,228.47384 121.20117,227.80327 121.20117,226.92761 M 122.10449,226.92761 C 122.10449,227.59168 122.24935,228.08972 122.53906,228.42175 C 122.82877,228.75053 123.19336,228.91492 123.63281,228.91492 C 124.06901,228.91492 124.43196,228.7489 124.72168,228.41687 C 125.01139,228.08484 125.15625,227.57866 125.15625,226.89832 C 125.15625,226.25704 125.00976,225.77202 124.7168,225.44324 C 124.42708,225.11121 124.06575,224.9452 123.63281,224.94519 C 123.19336,224.9452 122.82877,225.10958 122.53906,225.43835 C 122.24935,225.76713 122.10449,226.26355 122.10449,226.92761 M 129.01367,228.73425 L 129.14062,229.51062 C 128.89323,229.5627 128.67187,229.58875 128.47656,229.58875 C 128.15755,229.58875 127.91015,229.53829 127.73438,229.43738 C 127.55859,229.33647 127.43489,229.20463 127.36328,229.04187 C 127.29167,228.87586 127.25586,228.52918 127.25586,228.00183 L 127.25586,225.01843 L 126.61133,225.01843 L 126.61133,224.33484 L 127.25586,224.33484 L 127.25586,223.05066 L 128.12988,222.52332 L 128.12988,224.33484 L 129.01367,224.33484 L 129.01367,225.01843 L 128.12988,225.01843 L 128.12988,228.05066 C 128.12988,228.30131 128.14453,228.46244 128.17383,228.53406 C 128.20638,228.60567 128.25683,228.66264 128.3252,228.70496 C 128.39681,228.74727 128.49772,228.76843 128.62793,228.76843 C 128.72558,228.76843 128.85416,228.75704 129.01367,228.73425 M 129.8291,231.51746 L 129.73145,230.69226 C 129.9235,230.74434 130.09114,230.77038 130.23438,230.77039 C 130.42969,230.77038 130.58594,230.73783 130.70312,230.67273 C 130.82031,230.60762 130.91634,230.51648 130.99121,230.39929 C 131.04655,230.3114 131.13607,230.0933 131.25977,229.745 C 131.27604,229.69617 131.30208,229.62455 131.33789,229.53015 L 129.37012,224.33484 L 130.31738,224.33484 L 131.39648,227.33777 C 131.53646,227.71863 131.66178,228.11902 131.77246,228.53894 C 131.87337,228.1353 131.99381,227.74142 132.13379,227.3573 L 133.24219,224.33484 L 134.12109,224.33484 L 132.14844,229.60828 C 131.93685,230.17794 131.77246,230.57019 131.65527,230.78503 C 131.49902,231.07475 131.31998,231.28633 131.11816,231.4198 C 130.91634,231.55652 130.67545,231.62488 130.39551,231.62488 C 130.22624,231.62488 130.03743,231.58907 129.8291,231.51746 M 134.86816,231.50769 L 134.86816,224.33484 L 135.66895,224.33484 L 135.66895,225.00867 C 135.85775,224.745 136.07096,224.54806 136.30859,224.41785 C 136.54622,224.28439 136.83431,224.21766 137.17285,224.21765 C 137.61556,224.21766 138.00618,224.33159 138.34473,224.55945 C 138.68326,224.78732 138.9388,225.10958 139.11133,225.52625 C 139.28385,225.93966 139.37011,226.39376 139.37012,226.88855 C 139.37011,227.41915 139.27408,227.89767 139.08203,228.3241 C 138.89322,228.74727 138.61653,229.0728 138.25195,229.30066 C 137.89062,229.52527 137.50976,229.63757 137.10938,229.63757 C 136.8164,229.63757 136.55273,229.57572 136.31836,229.45203 C 136.08724,229.32833 135.89681,229.17208 135.74707,228.98328 L 135.74707,231.50769 L 134.86816,231.50769 M 135.66406,226.95691 C 135.66406,227.62423 135.79915,228.11739 136.06934,228.4364 C 136.33952,228.75541 136.66666,228.91492 137.05078,228.91492 C 137.4414,228.91492 137.77506,228.75053 138.05176,228.42175 C 138.3317,228.08972 138.47168,227.57703 138.47168,226.88367 C 138.47168,226.22286 138.33496,225.72807 138.06152,225.39929 C 137.79134,225.07052 137.46744,224.90613 137.08984,224.90613 C 136.71549,224.90613 136.38346,225.08191 136.09375,225.43347 C 135.80729,225.78178 135.66406,226.28959 135.66406,226.95691 M 143.98438,227.85046 L 144.89258,227.96277 C 144.74934,228.49337 144.48404,228.90515 144.09668,229.19812 C 143.70931,229.49109 143.21451,229.63757 142.6123,229.63757 C 141.85384,229.63757 141.25163,229.40483 140.80566,228.93933 C 140.36296,228.47058 140.1416,227.81466 140.1416,226.97156 C 140.1416,226.09917 140.36621,225.42208 140.81543,224.94031 C 141.26465,224.45854 141.84733,224.21766 142.56348,224.21765 C 143.25683,224.21766 143.82324,224.45366 144.2627,224.92566 C 144.70214,225.39767 144.92187,226.06173 144.92188,226.91785 C 144.92187,226.96993 144.92024,227.04806 144.91699,227.15222 L 141.0498,227.15222 C 141.08236,227.72188 141.24349,228.15808 141.5332,228.46082 C 141.82291,228.76355 142.18424,228.91492 142.61719,228.91492 C 142.93945,228.91492 143.21451,228.83028 143.44238,228.66101 C 143.67024,228.49174 143.85091,228.22156 143.98438,227.85046 M 141.09863,226.42957 L 143.99414,226.42957 C 143.95507,225.99337 143.8444,225.66622 143.66211,225.44812 C 143.38216,225.10958 143.0192,224.94031 142.57324,224.94031 C 142.16959,224.94031 141.82943,225.0754 141.55273,225.34558 C 141.2793,225.61577 141.12793,225.9771 141.09863,226.42957"
       id="text2322" />
    <path
       style="font-size:10px;font-style:normal;font-weight:normal;text-align:end;text-anchor:end;fill:#535d6c;fill-opacity:1;stroke:none;stroke-width:1px;stroke-linecap:butt;stroke-linejoin:miter;stroke-opacity:1;font-family:Arial"
       d="M 33.681641,293.02542 C 33.356116,293.30211 33.041989,293.49743 32.739258,293.61136 C 32.439776,293.72529 32.117511,293.78226 31.772461,293.78226 C 31.202798,293.78226 30.764973,293.64391 30.458984,293.36722 C 30.152994,293.08727 30,292.73083 30,292.29788 C 30,292.04398 30.056966,291.81286 30.170898,291.60452 C 30.288085,291.39294 30.439452,291.22367 30.625,291.09671 C 30.813801,290.96976 31.025389,290.87373 31.259766,290.80862 C 31.43229,290.76305 31.692706,290.71911 32.041016,290.67679 C 32.750648,290.59216 33.273108,290.49124 33.608398,290.37405 C 33.61165,290.25361 33.613277,290.17712 33.613281,290.14456 C 33.613277,289.78649 33.53027,289.53421 33.364258,289.38773 C 33.139645,289.18916 32.805986,289.08988 32.363281,289.08987 C 31.949867,289.08988 31.643878,289.16312 31.445312,289.3096 C 31.249998,289.45283 31.105142,289.70837 31.010742,290.0762 L 30.151367,289.95901 C 30.229492,289.59118 30.358072,289.29496 30.537109,289.07034 C 30.716145,288.84248 30.974934,288.66833 31.313477,288.54788 C 31.652016,288.42419 32.044268,288.36234 32.490234,288.36234 C 32.932939,288.36234 33.29264,288.41442 33.569336,288.51859 C 33.846024,288.62276 34.049475,288.75459 34.179688,288.91409 C 34.309891,289.07035 34.401037,289.26892 34.453125,289.5098 C 34.482417,289.65954 34.497065,289.92972 34.49707,290.32034 L 34.49707,291.49222 C 34.497065,292.30928 34.514969,292.82685 34.550781,293.04495 C 34.589839,293.2598 34.664709,293.4665 34.775391,293.66507 L 33.857422,293.66507 C 33.766272,293.48278 33.707678,293.26956 33.681641,293.02542 M 33.608398,291.06253 C 33.289384,291.19274 32.810869,291.30342 32.172852,291.39456 C 31.811521,291.44665 31.555988,291.50524 31.40625,291.57034 C 31.256509,291.63545 31.140949,291.73148 31.05957,291.85843 C 30.978189,291.98213 30.937499,292.12047 30.9375,292.27347 C 30.937499,292.50784 31.025389,292.70316 31.201172,292.85941 C 31.380207,293.01566 31.640623,293.09378 31.982422,293.09378 C 32.320961,293.09378 32.622067,293.02054 32.885742,292.87405 C 33.149411,292.72432 33.343095,292.52086 33.466797,292.2637 C 33.561194,292.06514 33.608394,291.77217 33.608398,291.3848 L 33.608398,291.06253 M 36.821289,293.66507 L 35.234375,288.47952 L 36.142578,288.47952 L 36.967773,291.47269 L 37.275391,292.58597 C 37.288409,292.53063 37.377928,292.17419 37.543945,291.51663 L 38.369141,288.47952 L 39.272461,288.47952 L 40.048828,291.48734 L 40.307617,292.47855 L 40.605469,291.47757 L 41.494141,288.47952 L 42.348633,288.47952 L 40.727539,293.66507 L 39.814453,293.66507 L 38.989258,290.5596 L 38.789062,289.67581 L 37.739258,293.66507 L 36.821289,293.66507 M 42.739258,292.11722 L 43.608398,291.9805 C 43.657225,292.32881 43.792316,292.59573 44.013672,292.78128 C 44.238279,292.96683 44.550779,293.0596 44.951172,293.0596 C 45.354815,293.0596 45.654294,292.97822 45.849609,292.81546 C 46.044918,292.64945 46.142574,292.45576 46.142578,292.23441 C 46.142574,292.03584 46.056311,291.87959 45.883789,291.76566 C 45.763343,291.68753 45.463864,291.58825 44.985352,291.4678 C 44.340818,291.30505 43.893228,291.16507 43.642578,291.04788 C 43.395181,290.92744 43.206379,290.76305 43.076172,290.55472 C 42.949218,290.34313 42.885742,290.11039 42.885742,289.85648 C 42.885742,289.62536 42.937825,289.41214 43.041992,289.21683 C 43.149413,289.01826 43.29427,288.85388 43.476562,288.72366 C 43.61328,288.62276 43.798827,288.53812 44.033203,288.46976 C 44.270831,288.39815 44.524737,288.36234 44.794922,288.36234 C 45.20182,288.36234 45.558265,288.42093 45.864258,288.53812 C 46.173499,288.65531 46.401363,288.81481 46.547852,289.01663 C 46.694332,289.2152 46.795243,289.48213 46.850586,289.81741 L 45.991211,289.9346 C 45.952145,289.66768 45.838213,289.45934 45.649414,289.3096 C 45.463864,289.15987 45.200193,289.085 44.858398,289.08499 C 44.454751,289.085 44.166665,289.15173 43.994141,289.28519 C 43.821613,289.41865 43.73535,289.5749 43.735352,289.75394 C 43.73535,289.86787 43.771158,289.97041 43.842773,290.06155 C 43.914387,290.15596 44.026691,290.23408 44.179688,290.29593 C 44.267576,290.32848 44.526365,290.40335 44.956055,290.52054 C 45.577796,290.68656 46.010739,290.82328 46.254883,290.93069 C 46.502275,291.03486 46.695959,291.18786 46.835938,291.38968 C 46.975907,291.5915 47.045894,291.84215 47.045898,292.14163 C 47.045894,292.4346 46.959631,292.71129 46.787109,292.97171 C 46.617834,293.22887 46.372066,293.42907 46.049805,293.5723 C 45.727536,293.71227 45.362953,293.78226 44.956055,293.78226 C 44.282225,293.78226 43.767902,293.64228 43.413086,293.36234 C 43.061523,293.08239 42.836914,292.66735 42.739258,292.11722 M 47.763672,291.0723 C 47.763672,290.11201 48.030598,289.40075 48.564453,288.93851 C 49.010415,288.5544 49.554034,288.36234 50.195312,288.36234 C 50.9082,288.36234 51.490881,288.59672 51.943359,289.06546 C 52.395828,289.53096 52.622065,290.17549 52.62207,290.99905 C 52.622065,291.66637 52.521154,292.19209 52.319336,292.5762 C 52.120764,292.95706 51.829423,293.25329 51.445312,293.46487 C 51.064449,293.67646 50.647783,293.78226 50.195312,293.78226 C 49.469399,293.78226 48.881834,293.54951 48.432617,293.08401 C 47.986653,292.61852 47.763672,291.94795 47.763672,291.0723 M 48.666992,291.0723 C 48.666991,291.73636 48.811848,292.23441 49.101562,292.56644 C 49.391274,292.89521 49.755857,293.0596 50.195312,293.0596 C 50.631507,293.0596 50.994463,292.89359 51.28418,292.56155 C 51.573889,292.22952 51.718746,291.72334 51.71875,291.043 C 51.718746,290.40173 51.572261,289.9167 51.279297,289.58792 C 50.98958,289.25589 50.628252,289.08988 50.195312,289.08987 C 49.755857,289.08988 49.391274,289.25427 49.101562,289.58304 C 48.811848,289.91182 48.666991,290.40824 48.666992,291.0723 M 53.657227,293.66507 L 53.657227,288.47952 L 54.443359,288.47952 L 54.443359,289.20706 C 54.606118,288.95316 54.822589,288.74971 55.092773,288.59671 C 55.362953,288.44047 55.67057,288.36234 56.015625,288.36234 C 56.399736,288.36234 56.713863,288.44209 56.958008,288.60159 C 57.205399,288.7611 57.379553,288.98408 57.480469,289.27054 C 57.89062,288.66507 58.424474,288.36234 59.082031,288.36234 C 59.596348,288.36234 59.991855,288.50557 60.268555,288.79202 C 60.54524,289.07523 60.683586,289.51306 60.683594,290.1055 L 60.683594,293.66507 L 59.80957,293.66507 L 59.80957,290.39847 C 59.809564,290.04691 59.780267,289.79463 59.72168,289.64163 C 59.666334,289.48539 59.563796,289.36006 59.414062,289.26566 C 59.264317,289.17126 59.088536,289.12406 58.886719,289.12405 C 58.52213,289.12406 58.219396,289.24613 57.978516,289.49026 C 57.737625,289.73115 57.617183,290.11852 57.617188,290.65237 L 57.617188,293.66507 L 56.738281,293.66507 L 56.738281,290.29593 C 56.738278,289.90531 56.666663,289.61234 56.523438,289.41702 C 56.380205,289.22171 56.14583,289.12406 55.820312,289.12405 C 55.572914,289.12406 55.343422,289.18916 55.131836,289.31937 C 54.923501,289.44958 54.772134,289.64001 54.677734,289.89066 C 54.583332,290.14131 54.536131,290.50264 54.536133,290.97464 L 54.536133,293.66507 L 53.657227,293.66507 M 65.546875,291.99515 L 66.455078,292.10745 C 66.311844,292.63805 66.046545,293.04984 65.65918,293.3428 C 65.271806,293.63577 64.777015,293.78226 64.174805,293.78226 C 63.416339,293.78226 62.814126,293.54951 62.368164,293.08401 C 61.925455,292.61527 61.704101,291.95934 61.704102,291.11624 C 61.704101,290.24385 61.92871,289.56677 62.37793,289.08499 C 62.827147,288.60323 63.409829,288.36234 64.125977,288.36234 C 64.819332,288.36234 65.385738,288.59834 65.825195,289.07034 C 66.264644,289.54235 66.48437,290.20641 66.484375,291.06253 C 66.48437,291.11462 66.482742,291.19274 66.479492,291.29691 L 62.612305,291.29691 C 62.644855,291.86657 62.805988,292.30277 63.095703,292.6055 C 63.385415,292.90823 63.746742,293.0596 64.179688,293.0596 C 64.50195,293.0596 64.777015,292.97497 65.004883,292.80569 C 65.232744,292.63642 65.413407,292.36624 65.546875,291.99515 M 62.661133,290.57425 L 65.556641,290.57425 C 65.517574,290.13805 65.406897,289.81091 65.224609,289.5928 C 64.944658,289.25427 64.581702,289.085 64.135742,289.08499 C 63.732094,289.085 63.391925,289.22009 63.115234,289.49026 C 62.841795,289.76045 62.690428,290.12178 62.661133,290.57425 M 71.293945,293.66507 L 69.707031,288.47952 L 70.615234,288.47952 L 71.44043,291.47269 L 71.748047,292.58597 C 71.761066,292.53063 71.850584,292.17419 72.016602,291.51663 L 72.841797,288.47952 L 73.745117,288.47952 L 74.521484,291.48734 L 74.780273,292.47855 L 75.078125,291.47757 L 75.966797,288.47952 L 76.821289,288.47952 L 75.200195,293.66507 L 74.287109,293.66507 L 73.461914,290.5596 L 73.261719,289.67581 L 72.211914,293.66507 L 71.293945,293.66507 M 77.568359,287.51761 L 77.568359,286.50687 L 78.447266,286.50687 L 78.447266,287.51761 L 77.568359,287.51761 M 77.568359,293.66507 L 77.568359,288.47952 L 78.447266,288.47952 L 78.447266,293.66507 L 77.568359,293.66507 M 79.790039,293.66507 L 79.790039,288.47952 L 80.581055,288.47952 L 80.581055,289.21683 C 80.961912,288.64717 81.512042,288.36234 82.231445,288.36234 C 82.543942,288.36234 82.8304,288.41931 83.09082,288.53323 C 83.354488,288.64392 83.551428,288.7904 83.681641,288.97269 C 83.811844,289.15498 83.90299,289.37145 83.955078,289.6221 C 83.987625,289.78487 84.003901,290.0697 84.003906,290.47659 L 84.003906,293.66507 L 83.125,293.66507 L 83.125,290.51077 C 83.124996,290.1527 83.090816,289.88578 83.022461,289.70999 C 82.954098,289.53096 82.832028,289.38936 82.65625,289.28519 C 82.483721,289.17777 82.28027,289.12406 82.045898,289.12405 C 81.671547,289.12406 81.347654,289.24287 81.074219,289.4805 C 80.804035,289.71813 80.668944,290.16898 80.668945,290.83304 L 80.668945,293.66507 L 79.790039,293.66507 M 88.720703,293.66507 L 88.720703,293.01077 C 88.391923,293.5251 87.908525,293.78226 87.270508,293.78226 C 86.857094,293.78226 86.476235,293.66832 86.12793,293.44046 C 85.782877,293.2126 85.514322,292.89521 85.322266,292.48831 C 85.133463,292.07816 85.039062,291.60778 85.039062,291.07718 C 85.039062,290.5596 85.125325,290.09085 85.297852,289.67093 C 85.470377,289.24776 85.729166,288.92386 86.074219,288.69925 C 86.419269,288.47465 86.805011,288.36234 87.231445,288.36234 C 87.543942,288.36234 87.822262,288.42907 88.066406,288.56253 C 88.310543,288.69274 88.509111,288.86364 88.662109,289.07523 L 88.662109,286.50687 L 89.536133,286.50687 L 89.536133,293.66507 L 88.720703,293.66507 M 85.942383,291.07718 C 85.942382,291.74124 86.082355,292.23766 86.362305,292.56644 C 86.642251,292.89521 86.972654,293.0596 87.353516,293.0596 C 87.737627,293.0596 88.063148,292.90335 88.330078,292.59085 C 88.600257,292.2751 88.735348,291.79495 88.735352,291.15042 C 88.735348,290.44079 88.598629,289.91996 88.325195,289.58792 C 88.051754,289.25589 87.714841,289.08988 87.314453,289.08987 C 86.923826,289.08988 86.596678,289.24938 86.333008,289.56839 C 86.07259,289.8874 85.942382,290.39033 85.942383,291.07718 M 90.595703,291.0723 C 90.595703,290.11201 90.86263,289.40075 91.396484,288.93851 C 91.842446,288.5544 92.386066,288.36234 93.027344,288.36234 C 93.740231,288.36234 94.322913,288.59672 94.775391,289.06546 C 95.22786,289.53096 95.454096,290.17549 95.454102,290.99905 C 95.454096,291.66637 95.353185,292.19209 95.151367,292.5762 C 94.952795,292.95706 94.661454,293.25329 94.277344,293.46487 C 93.896481,293.67646 93.479814,293.78226 93.027344,293.78226 C 92.30143,293.78226 91.713866,293.54951 91.264648,293.08401 C 90.818684,292.61852 90.595703,291.94795 90.595703,291.0723 M 91.499023,291.0723 C 91.499022,291.73636 91.643879,292.23441 91.933594,292.56644 C 92.223305,292.89521 92.587888,293.0596 93.027344,293.0596 C 93.463538,293.0596 93.826494,292.89359 94.116211,292.56155 C 94.40592,292.22952 94.550777,291.72334 94.550781,291.043 C 94.550777,290.40173 94.404293,289.9167 94.111328,289.58792 C 93.821611,289.25589 93.460283,289.08988 93.027344,289.08987 C 92.587888,289.08988 92.223305,289.25427 91.933594,289.58304 C 91.643879,289.91182 91.499022,290.40824 91.499023,291.0723 M 97.446289,293.66507 L 95.859375,288.47952 L 96.767578,288.47952 L 97.592773,291.47269 L 97.900391,292.58597 C 97.913409,292.53063 98.002928,292.17419 98.168945,291.51663 L 98.994141,288.47952 L 99.897461,288.47952 L 100.67383,291.48734 L 100.93262,292.47855 L 101.23047,291.47757 L 102.11914,288.47952 L 102.97363,288.47952 L 101.35254,293.66507 L 100.43945,293.66507 L 99.614258,290.5596 L 99.414062,289.67581 L 98.364258,293.66507 L 97.446289,293.66507 M 106.48926,293.66507 L 106.48926,288.47952 L 107.27539,288.47952 L 107.27539,289.20706 C 107.43815,288.95316 107.65462,288.74971 107.9248,288.59671 C 108.19498,288.44047 108.5026,288.36234 108.84766,288.36234 C 109.23177,288.36234 109.54589,288.44209 109.79004,288.60159 C 110.03743,288.7611 110.21158,288.98408 110.3125,289.27054 C 110.72265,288.66507 111.2565,288.36234 111.91406,288.36234 C 112.42838,288.36234 112.82389,288.50557 113.10059,288.79202 C 113.37727,289.07523 113.51562,289.51306 113.51562,290.1055 L 113.51562,293.66507 L 112.6416,293.66507 L 112.6416,290.39847 C 112.64159,290.04691 112.6123,289.79463 112.55371,289.64163 C 112.49837,289.48539 112.39583,289.36006 112.24609,289.26566 C 112.09635,289.17126 111.92057,289.12406 111.71875,289.12405 C 111.35416,289.12406 111.05143,289.24613 110.81055,289.49026 C 110.56966,289.73115 110.44921,290.11852 110.44922,290.65237 L 110.44922,293.66507 L 109.57031,293.66507 L 109.57031,290.29593 C 109.57031,289.90531 109.49869,289.61234 109.35547,289.41702 C 109.21224,289.22171 108.97786,289.12406 108.65234,289.12405 C 108.40495,289.12406 108.17545,289.18916 107.96387,289.31937 C 107.75553,289.44958 107.60416,289.64001 107.50977,289.89066 C 107.41536,290.14131 107.36816,290.50264 107.36816,290.97464 L 107.36816,293.66507 L 106.48926,293.66507 M 118.21289,293.02542 C 117.88737,293.30211 117.57324,293.49743 117.27051,293.61136 C 116.97103,293.72529 116.64876,293.78226 116.30371,293.78226 C 115.73405,293.78226 115.29622,293.64391 114.99023,293.36722 C 114.68424,293.08727 114.53125,292.73083 114.53125,292.29788 C 114.53125,292.04398 114.58822,291.81286 114.70215,291.60452 C 114.81934,291.39294 114.9707,291.22367 115.15625,291.09671 C 115.34505,290.96976 115.55664,290.87373 115.79102,290.80862 C 115.96354,290.76305 116.22396,290.71911 116.57227,290.67679 C 117.2819,290.59216 117.80436,290.49124 118.13965,290.37405 C 118.1429,290.25361 118.14453,290.17712 118.14453,290.14456 C 118.14453,289.78649 118.06152,289.53421 117.89551,289.38773 C 117.67089,289.18916 117.33724,289.08988 116.89453,289.08987 C 116.48112,289.08988 116.17513,289.16312 115.97656,289.3096 C 115.78125,289.45283 115.63639,289.70837 115.54199,290.0762 L 114.68262,289.95901 C 114.76074,289.59118 114.88932,289.29496 115.06836,289.07034 C 115.24739,288.84248 115.50618,288.66833 115.84473,288.54788 C 116.18327,288.42419 116.57552,288.36234 117.02148,288.36234 C 117.46419,288.36234 117.82389,288.41442 118.10059,288.51859 C 118.37727,288.62276 118.58072,288.75459 118.71094,288.91409 C 118.84114,289.07035 118.93229,289.26892 118.98438,289.5098 C 119.01367,289.65954 119.02832,289.92972 119.02832,290.32034 L 119.02832,291.49222 C 119.02832,292.30928 119.04622,292.82685 119.08203,293.04495 C 119.12109,293.2598 119.19596,293.4665 119.30664,293.66507 L 118.38867,293.66507 C 118.29752,293.48278 118.23893,293.26956 118.21289,293.02542 M 118.13965,291.06253 C 117.82063,291.19274 117.34212,291.30342 116.7041,291.39456 C 116.34277,291.44665 116.08724,291.50524 115.9375,291.57034 C 115.78776,291.63545 115.6722,291.73148 115.59082,291.85843 C 115.50944,291.98213 115.46875,292.12047 115.46875,292.27347 C 115.46875,292.50784 115.55664,292.70316 115.73242,292.85941 C 115.91146,293.01566 116.17187,293.09378 116.51367,293.09378 C 116.85221,293.09378 117.15332,293.02054 117.41699,292.87405 C 117.68066,292.72432 117.87435,292.52086 117.99805,292.2637 C 118.09244,292.06514 118.13964,291.77217 118.13965,291.3848 L 118.13965,291.06253 M 120.39551,293.66507 L 120.39551,288.47952 L 121.18652,288.47952 L 121.18652,289.21683 C 121.56738,288.64717 122.11751,288.36234 122.83691,288.36234 C 123.14941,288.36234 123.43587,288.41931 123.69629,288.53323 C 123.95996,288.64392 124.1569,288.7904 124.28711,288.97269 C 124.41731,289.15498 124.50846,289.37145 124.56055,289.6221 C 124.59309,289.78487 124.60937,290.0697 124.60938,290.47659 L 124.60938,293.66507 L 123.73047,293.66507 L 123.73047,290.51077 C 123.73046,290.1527 123.69629,289.88578 123.62793,289.70999 C 123.55957,289.53096 123.4375,289.38936 123.26172,289.28519 C 123.08919,289.17777 122.88574,289.12406 122.65137,289.12405 C 122.27702,289.12406 121.95312,289.24287 121.67969,289.4805 C 121.4095,289.71813 121.27441,290.16898 121.27441,290.83304 L 121.27441,293.66507 L 120.39551,293.66507 M 129.3457,293.02542 C 129.02018,293.30211 128.70605,293.49743 128.40332,293.61136 C 128.10384,293.72529 127.78157,293.78226 127.43652,293.78226 C 126.86686,293.78226 126.42904,293.64391 126.12305,293.36722 C 125.81706,293.08727 125.66406,292.73083 125.66406,292.29788 C 125.66406,292.04398 125.72103,291.81286 125.83496,291.60452 C 125.95215,291.39294 126.10351,291.22367 126.28906,291.09671 C 126.47786,290.96976 126.68945,290.87373 126.92383,290.80862 C 127.09635,290.76305 127.35677,290.71911 127.70508,290.67679 C 128.41471,290.59216 128.93717,290.49124 129.27246,290.37405 C 129.27571,290.25361 129.27734,290.17712 129.27734,290.14456 C 129.27734,289.78649 129.19433,289.53421 129.02832,289.38773 C 128.80371,289.18916 128.47005,289.08988 128.02734,289.08987 C 127.61393,289.08988 127.30794,289.16312 127.10938,289.3096 C 126.91406,289.45283 126.7692,289.70837 126.6748,290.0762 L 125.81543,289.95901 C 125.89355,289.59118 126.02213,289.29496 126.20117,289.07034 C 126.38021,288.84248 126.639,288.66833 126.97754,288.54788 C 127.31608,288.42419 127.70833,288.36234 128.1543,288.36234 C 128.597,288.36234 128.9567,288.41442 129.2334,288.51859 C 129.51009,288.62276 129.71354,288.75459 129.84375,288.91409 C 129.97395,289.07035 130.0651,289.26892 130.11719,289.5098 C 130.14648,289.65954 130.16113,289.92972 130.16113,290.32034 L 130.16113,291.49222 C 130.16113,292.30928 130.17903,292.82685 130.21484,293.04495 C 130.2539,293.2598 130.32877,293.4665 130.43945,293.66507 L 129.52148,293.66507 C 129.43033,293.48278 129.37174,293.26956 129.3457,293.02542 M 129.27246,291.06253 C 128.95345,291.19274 128.47493,291.30342 127.83691,291.39456 C 127.47558,291.44665 127.22005,291.50524 127.07031,291.57034 C 126.92057,291.63545 126.80501,291.73148 126.72363,291.85843 C 126.64225,291.98213 126.60156,292.12047 126.60156,292.27347 C 126.60156,292.50784 126.68945,292.70316 126.86523,292.85941 C 127.04427,293.01566 127.30469,293.09378 127.64648,293.09378 C 127.98502,293.09378 128.28613,293.02054 128.5498,292.87405 C 128.81347,292.72432 129.00716,292.52086 129.13086,292.2637 C 129.22526,292.06514 129.27246,291.77217 129.27246,291.3848 L 129.27246,291.06253 M 131.36719,294.09476 L 132.22168,294.22171 C 132.25749,294.48538 132.35677,294.67744 132.51953,294.79788 C 132.73763,294.96064 133.03548,295.04202 133.41309,295.04202 C 133.81998,295.04202 134.13411,294.96064 134.35547,294.79788 C 134.57682,294.63512 134.72656,294.40726 134.80469,294.11429 C 134.85026,293.93525 134.87142,293.55928 134.86816,292.98636 C 134.48405,293.43883 134.00553,293.66507 133.43262,293.66507 C 132.71972,293.66507 132.16797,293.40791 131.77734,292.89359 C 131.38672,292.37926 131.19141,291.7624 131.19141,291.043 C 131.19141,290.54821 131.28092,290.09248 131.45996,289.67581 C 131.639,289.25589 131.89779,288.932 132.23633,288.70413 C 132.57812,288.47627 132.97851,288.36234 133.4375,288.36234 C 134.04948,288.36234 134.55403,288.60974 134.95117,289.10452 L 134.95117,288.47952 L 135.76172,288.47952 L 135.76172,292.96194 C 135.76171,293.76924 135.67871,294.34052 135.5127,294.67581 C 135.34993,295.01435 135.08951,295.28128 134.73145,295.47659 C 134.37662,295.6719 133.9388,295.76956 133.41797,295.76956 C 132.79948,295.76956 132.2998,295.62959 131.91895,295.34964 C 131.53809,295.07295 131.35417,294.65465 131.36719,294.09476 M 132.09473,290.97952 C 132.09473,291.65986 132.22982,292.15628 132.5,292.46878 C 132.77018,292.78128 133.10872,292.93753 133.51562,292.93753 C 133.91927,292.93753 134.25781,292.78291 134.53125,292.47366 C 134.80468,292.16116 134.9414,291.67288 134.94141,291.00882 C 134.9414,290.37406 134.7998,289.89554 134.5166,289.57327 C 134.23665,289.25101 133.89811,289.08988 133.50098,289.08987 C 133.11035,289.08988 132.77832,289.24938 132.50488,289.56839 C 132.23144,289.88415 132.09473,290.35453 132.09473,290.97952 M 140.64453,291.99515 L 141.55273,292.10745 C 141.4095,292.63805 141.1442,293.04984 140.75684,293.3428 C 140.36946,293.63577 139.87467,293.78226 139.27246,293.78226 C 138.514,293.78226 137.91178,293.54951 137.46582,293.08401 C 137.02311,292.61527 136.80176,291.95934 136.80176,291.11624 C 136.80176,290.24385 137.02637,289.56677 137.47559,289.08499 C 137.9248,288.60323 138.50748,288.36234 139.22363,288.36234 C 139.91699,288.36234 140.48339,288.59834 140.92285,289.07034 C 141.3623,289.54235 141.58203,290.20641 141.58203,291.06253 C 141.58203,291.11462 141.5804,291.19274 141.57715,291.29691 L 137.70996,291.29691 C 137.74251,291.86657 137.90364,292.30277 138.19336,292.6055 C 138.48307,292.90823 138.8444,293.0596 139.27734,293.0596 C 139.59961,293.0596 139.87467,292.97497 140.10254,292.80569 C 140.3304,292.63642 140.51106,292.36624 140.64453,291.99515 M 137.75879,290.57425 L 140.6543,290.57425 C 140.61523,290.13805 140.50455,289.81091 140.32227,289.5928 C 140.04231,289.25427 139.67936,289.085 139.2334,289.08499 C 138.82975,289.085 138.48958,289.22009 138.21289,289.49026 C 137.93945,289.76045 137.78808,290.12178 137.75879,290.57425 M 142.65137,293.66507 L 142.65137,288.47952 L 143.44238,288.47952 L 143.44238,289.26566 C 143.6442,288.89782 143.82975,288.65531 143.99902,288.53812 C 144.17155,288.42093 144.36035,288.36234 144.56543,288.36234 C 144.86165,288.36234 145.16276,288.45674 145.46875,288.64554 L 145.16602,289.46097 C 144.95117,289.33402 144.73633,289.27054 144.52148,289.27054 C 144.32942,289.27054 144.1569,289.32914 144.00391,289.44632 C 143.85091,289.56026 143.74186,289.71976 143.67676,289.92484 C 143.5791,290.23734 143.53027,290.57914 143.53027,290.95023 L 143.53027,293.66507 L 142.65137,293.66507"
       id="text2326" />
    <path
       style="font-size:10px;font-style:normal;font-weight:normal;text-align:end;text-anchor:end;fill:#535d6c;fill-opacity:1;stroke:none;stroke-width:1px;stroke-linecap:butt;stroke-linejoin:miter;stroke-opacity:1;font-family:Arial"
       d="M 91.552734,367.27164 C 91.22721,367.54833 90.913083,367.74364 90.610352,367.85757 C 90.31087,367.97151 89.988604,368.02847 89.643555,368.02847 C 89.073892,368.02847 88.636067,367.89013 88.330078,367.61343 C 88.024088,367.33349 87.871093,366.97704 87.871094,366.5441 C 87.871093,366.29019 87.928059,366.05907 88.041992,365.85074 C 88.159179,365.63915 88.310546,365.46988 88.496094,365.34293 C 88.684895,365.21598 88.896483,365.11995 89.130859,365.05484 C 89.303384,365.00927 89.5638,364.96532 89.912109,364.923 C 90.621742,364.83837 91.144202,364.73746 91.479492,364.62027 C 91.482743,364.49983 91.484371,364.42333 91.484375,364.39078 C 91.484371,364.03271 91.401363,363.78043 91.235352,363.63394 C 91.010739,363.43538 90.67708,363.33609 90.234375,363.33609 C 89.820961,363.33609 89.514972,363.40934 89.316406,363.55582 C 89.121092,363.69905 88.976236,363.95458 88.881836,364.32242 L 88.022461,364.20523 C 88.100585,363.8374 88.229166,363.54117 88.408203,363.31656 C 88.587239,363.0887 88.846027,362.91455 89.18457,362.7941 C 89.52311,362.67041 89.915362,362.60856 90.361328,362.60855 C 90.804033,362.60856 91.163733,362.66064 91.44043,362.7648 C 91.717118,362.86897 91.920569,363.00081 92.050781,363.16031 C 92.180985,363.31656 92.272131,363.51513 92.324219,363.75601 C 92.353511,363.90576 92.368159,364.17594 92.368164,364.56656 L 92.368164,365.73843 C 92.368159,366.55549 92.386063,367.07307 92.421875,367.29117 C 92.460933,367.50601 92.535802,367.71272 92.646484,367.91129 L 91.728516,367.91129 C 91.637366,367.72899 91.578772,367.51578 91.552734,367.27164 M 91.479492,365.30875 C 91.160478,365.43896 90.681963,365.54963 90.043945,365.64078 C 89.682615,365.69286 89.427081,365.75146 89.277344,365.81656 C 89.127603,365.88167 89.012043,365.97769 88.930664,366.10464 C 88.849283,366.22834 88.808592,366.36669 88.808594,366.51968 C 88.808592,366.75406 88.896483,366.94937 89.072266,367.10562 C 89.2513,367.26187 89.511717,367.34 89.853516,367.34 C 90.192055,367.34 90.493161,367.26675 90.756836,367.12027 C 91.020504,366.97053 91.214189,366.76708 91.337891,366.50992 C 91.432288,366.31135 91.479488,366.01838 91.479492,365.63101 L 91.479492,365.30875 M 94.692383,367.91129 L 93.105469,362.72574 L 94.013672,362.72574 L 94.838867,365.7189 L 95.146484,366.83218 C 95.159503,366.77685 95.249021,366.4204 95.415039,365.76285 L 96.240234,362.72574 L 97.143555,362.72574 L 97.919922,365.73355 L 98.178711,366.72476 L 98.476562,365.72379 L 99.365234,362.72574 L 100.21973,362.72574 L 98.598633,367.91129 L 97.685547,367.91129 L 96.860352,364.80582 L 96.660156,363.92203 L 95.610352,367.91129 L 94.692383,367.91129 M 100.61035,366.36343 L 101.47949,366.22672 C 101.52832,366.57502 101.66341,366.84195 101.88477,367.0275 C 102.10937,367.21304 102.42187,367.30582 102.82227,367.30582 C 103.22591,367.30582 103.52539,367.22444 103.7207,367.06168 C 103.91601,366.89566 104.01367,366.70198 104.01367,366.48062 C 104.01367,366.28206 103.92741,366.12581 103.75488,366.01187 C 103.63444,365.93375 103.33496,365.83446 102.85645,365.71402 C 102.21191,365.55126 101.76432,365.41129 101.51367,365.2941 C 101.26628,365.17366 101.07747,365.00927 100.94727,364.80093 C 100.82031,364.58935 100.75684,364.3566 100.75684,364.10269 C 100.75684,363.87158 100.80892,363.65836 100.91309,363.46304 C 101.02051,363.26448 101.16536,363.10009 101.34766,362.96988 C 101.48437,362.86897 101.66992,362.78434 101.9043,362.71597 C 102.14193,362.64436 102.39583,362.60856 102.66602,362.60855 C 103.07291,362.60856 103.42936,362.66715 103.73535,362.78433 C 104.04459,362.90152 104.27246,363.06103 104.41895,363.26285 C 104.56543,363.46142 104.66634,363.72835 104.72168,364.06363 L 103.8623,364.18082 C 103.82324,363.91389 103.70931,363.70556 103.52051,363.55582 C 103.33496,363.40608 103.07129,363.33121 102.72949,363.33121 C 102.32584,363.33121 102.03776,363.39794 101.86523,363.5314 C 101.69271,363.66487 101.60644,363.82112 101.60645,364.00015 C 101.60644,364.11409 101.64225,364.21663 101.71387,364.30777 C 101.78548,364.40217 101.89778,364.4803 102.05078,364.54214 C 102.13867,364.5747 102.39746,364.64957 102.82715,364.76675 C 103.44889,364.93277 103.88183,365.06949 104.12598,365.17691 C 104.37337,365.28108 104.56705,365.43407 104.70703,365.63589 C 104.847,365.83772 104.91699,366.08837 104.91699,366.38785 C 104.91699,366.68082 104.83072,366.95751 104.6582,367.21793 C 104.48893,367.47509 104.24316,367.67528 103.9209,367.81851 C 103.59863,367.95849 103.23405,368.02847 102.82715,368.02847 C 102.15332,368.02847 101.639,367.8885 101.28418,367.60855 C 100.93262,367.3286 100.70801,366.91357 100.61035,366.36343 M 105.63477,365.31851 C 105.63477,364.35823 105.90169,363.64697 106.43555,363.18472 C 106.88151,362.80061 107.42513,362.60856 108.06641,362.60855 C 108.77929,362.60856 109.36198,362.84293 109.81445,363.31168 C 110.26692,363.77717 110.49316,364.42171 110.49316,365.24527 C 110.49316,365.91259 110.39225,366.43831 110.19043,366.82242 C 109.99186,367.20328 109.70052,367.4995 109.31641,367.71109 C 108.93554,367.92268 108.51888,368.02847 108.06641,368.02847 C 107.34049,368.02847 106.75293,367.79573 106.30371,367.33023 C 105.85775,366.86474 105.63477,366.19416 105.63477,365.31851 M 106.53809,365.31851 C 106.53808,365.98258 106.68294,366.48062 106.97266,366.81265 C 107.26237,367.14143 107.62695,367.30582 108.06641,367.30582 C 108.5026,367.30582 108.86556,367.1398 109.15527,366.80777 C 109.44498,366.47574 109.58984,365.96956 109.58984,365.28922 C 109.58984,364.64794 109.44336,364.16292 109.15039,363.83414 C 108.86067,363.50211 108.49935,363.33609 108.06641,363.33609 C 107.62695,363.33609 107.26237,363.50048 106.97266,363.82925 C 106.68294,364.15803 106.53808,364.65445 106.53809,365.31851 M 111.52832,367.91129 L 111.52832,362.72574 L 112.31445,362.72574 L 112.31445,363.45328 C 112.47721,363.19938 112.69368,362.99593 112.96387,362.84293 C 113.23405,362.68668 113.54166,362.60856 113.88672,362.60855 C 114.27083,362.60856 114.58496,362.68831 114.8291,362.84781 C 115.07649,363.00732 115.25065,363.2303 115.35156,363.51675 C 115.76171,362.91129 116.29557,362.60856 116.95312,362.60855 C 117.46744,362.60856 117.86295,362.75179 118.13965,363.03824 C 118.41633,363.32145 118.55468,363.75927 118.55469,364.35172 L 118.55469,367.91129 L 117.68066,367.91129 L 117.68066,364.64468 C 117.68066,364.29312 117.65136,364.04085 117.59277,363.88785 C 117.53743,363.7316 117.43489,363.60628 117.28516,363.51187 C 117.13541,363.41747 116.95963,363.37027 116.75781,363.37027 C 116.39322,363.37027 116.09049,363.49234 115.84961,363.73648 C 115.60872,363.97737 115.48828,364.36474 115.48828,364.89859 L 115.48828,367.91129 L 114.60938,367.91129 L 114.60938,364.54214 C 114.60937,364.15152 114.53776,363.85856 114.39453,363.66324 C 114.2513,363.46793 114.01692,363.37027 113.69141,363.37027 C 113.44401,363.37027 113.21452,363.43538 113.00293,363.56558 C 112.79459,363.69579 112.64323,363.88622 112.54883,364.13687 C 112.45443,364.38753 112.40723,364.74885 112.40723,365.22086 L 112.40723,367.91129 L 111.52832,367.91129 M 123.41797,366.24136 L 124.32617,366.35367 C 124.18294,366.88427 123.91764,367.29605 123.53027,367.58902 C 123.1429,367.88199 122.64811,368.02847 122.0459,368.02847 C 121.28743,368.02847 120.68522,367.79573 120.23926,367.33023 C 119.79655,366.86148 119.57519,366.20556 119.5752,365.36246 C 119.57519,364.49006 119.7998,363.81298 120.24902,363.33121 C 120.69824,362.84944 121.28092,362.60856 121.99707,362.60855 C 122.69043,362.60856 123.25683,362.84456 123.69629,363.31656 C 124.13574,363.78857 124.35546,364.45263 124.35547,365.30875 C 124.35546,365.36083 124.35384,365.43896 124.35059,365.54312 L 120.4834,365.54312 C 120.51595,366.11278 120.67708,366.54898 120.9668,366.85172 C 121.25651,367.15445 121.61784,367.30582 122.05078,367.30582 C 122.37304,367.30582 122.64811,367.22118 122.87598,367.05191 C 123.10384,366.88264 123.2845,366.61246 123.41797,366.24136 M 120.53223,364.82047 L 123.42773,364.82047 C 123.38867,364.38427 123.27799,364.05712 123.0957,363.83902 C 122.81575,363.50048 122.4528,363.33121 122.00684,363.33121 C 121.60319,363.33121 121.26302,363.4663 120.98633,363.73648 C 120.71289,364.00667 120.56152,364.36799 120.53223,364.82047 M 130.12695,367.12515 L 130.25391,367.90152 C 130.00651,367.9536 129.78515,367.97964 129.58984,367.97964 C 129.27083,367.97964 129.02344,367.92919 128.84766,367.82828 C 128.67187,367.72737 128.54818,367.59553 128.47656,367.43277 C 128.40495,367.26675 128.36914,366.92008 128.36914,366.39273 L 128.36914,363.40933 L 127.72461,363.40933 L 127.72461,362.72574 L 128.36914,362.72574 L 128.36914,361.44156 L 129.24316,360.91422 L 129.24316,362.72574 L 130.12695,362.72574 L 130.12695,363.40933 L 129.24316,363.40933 L 129.24316,366.44156 C 129.24316,366.69221 129.25781,366.85334 129.28711,366.92496 C 129.31966,366.99657 129.37012,367.05354 129.43848,367.09586 C 129.51009,367.13817 129.611,367.15933 129.74121,367.15933 C 129.83886,367.15933 129.96745,367.14794 130.12695,367.12515 M 130.98633,361.76382 L 130.98633,360.75308 L 131.86523,360.75308 L 131.86523,361.76382 L 130.98633,361.76382 M 130.98633,367.91129 L 130.98633,362.72574 L 131.86523,362.72574 L 131.86523,367.91129 L 130.98633,367.91129 M 133.18848,367.91129 L 133.18848,360.75308 L 134.06738,360.75308 L 134.06738,367.91129 L 133.18848,367.91129 M 138.98438,366.24136 L 139.89258,366.35367 C 139.74934,366.88427 139.48404,367.29605 139.09668,367.58902 C 138.70931,367.88199 138.21451,368.02847 137.6123,368.02847 C 136.85384,368.02847 136.25163,367.79573 135.80566,367.33023 C 135.36296,366.86148 135.1416,366.20556 135.1416,365.36246 C 135.1416,364.49006 135.36621,363.81298 135.81543,363.33121 C 136.26465,362.84944 136.84733,362.60856 137.56348,362.60855 C 138.25683,362.60856 138.82324,362.84456 139.2627,363.31656 C 139.70214,363.78857 139.92187,364.45263 139.92188,365.30875 C 139.92187,365.36083 139.92024,365.43896 139.91699,365.54312 L 136.0498,365.54312 C 136.08236,366.11278 136.24349,366.54898 136.5332,366.85172 C 136.82291,367.15445 137.18424,367.30582 137.61719,367.30582 C 137.93945,367.30582 138.21451,367.22118 138.44238,367.05191 C 138.67024,366.88264 138.85091,366.61246 138.98438,366.24136 M 136.09863,364.82047 L 138.99414,364.82047 C 138.95507,364.38427 138.8444,364.05712 138.66211,363.83902 C 138.38216,363.50048 138.0192,363.33121 137.57324,363.33121 C 137.16959,363.33121 136.82943,363.4663 136.55273,363.73648 C 136.2793,364.00667 136.12793,364.36799 136.09863,364.82047 M 140.64941,366.36343 L 141.51855,366.22672 C 141.56738,366.57502 141.70247,366.84195 141.92383,367.0275 C 142.14844,367.21304 142.46094,367.30582 142.86133,367.30582 C 143.26497,367.30582 143.56445,367.22444 143.75977,367.06168 C 143.95507,366.89566 144.05273,366.70198 144.05273,366.48062 C 144.05273,366.28206 143.96647,366.12581 143.79395,366.01187 C 143.6735,365.93375 143.37402,365.83446 142.89551,365.71402 C 142.25097,365.55126 141.80338,365.41129 141.55273,365.2941 C 141.30534,365.17366 141.11654,365.00927 140.98633,364.80093 C 140.85937,364.58935 140.7959,364.3566 140.7959,364.10269 C 140.7959,363.87158 140.84798,363.65836 140.95215,363.46304 C 141.05957,363.26448 141.20443,363.10009 141.38672,362.96988 C 141.52344,362.86897 141.70898,362.78434 141.94336,362.71597 C 142.18099,362.64436 142.43489,362.60856 142.70508,362.60855 C 143.11198,362.60856 143.46842,362.66715 143.77441,362.78433 C 144.08366,362.90152 144.31152,363.06103 144.45801,363.26285 C 144.60449,363.46142 144.7054,363.72835 144.76074,364.06363 L 143.90137,364.18082 C 143.8623,363.91389 143.74837,363.70556 143.55957,363.55582 C 143.37402,363.40608 143.11035,363.33121 142.76855,363.33121 C 142.36491,363.33121 142.07682,363.39794 141.9043,363.5314 C 141.73177,363.66487 141.64551,363.82112 141.64551,364.00015 C 141.64551,364.11409 141.68131,364.21663 141.75293,364.30777 C 141.82454,364.40217 141.93685,364.4803 142.08984,364.54214 C 142.17773,364.5747 142.43652,364.64957 142.86621,364.76675 C 143.48795,364.93277 143.92089,365.06949 144.16504,365.17691 C 144.41243,365.28108 144.60612,365.43407 144.74609,365.63589 C 144.88606,365.83772 144.95605,366.08837 144.95605,366.38785 C 144.95605,366.68082 144.86979,366.95751 144.69727,367.21793 C 144.52799,367.47509 144.28222,367.67528 143.95996,367.81851 C 143.63769,367.95849 143.27311,368.02847 142.86621,368.02847 C 142.19238,368.02847 141.67806,367.8885 141.32324,367.60855 C 140.97168,367.3286 140.74707,366.91357 140.64941,366.36343"
       id="text2330" />
    <g
       id="g2698">
      <path
         style="fill:#535d6c;fill-opacity:1;stroke:none;stroke-width:0.5;stroke-linecap:round;stroke-linejoin:round;stroke-miterlimit:4;stroke-dasharray:none;stroke-dashoffset:0;stroke-opacity:1"
         d="M 178,212.36218 L 178,222.36218 L 188,222.36218 L 200,222.36218 L 200,223.36218 L 188,223.36218 L 178,223.36218 L 178,235.36218 L 178,244.36218 L 191.53125,244.36218 L 199,244.36218 L 199,234.36218 L 191.53125,234.36218 L 188,234.36218 L 188,233.36218 L 200,233.36218 L 200,234.36218 L 200,236.36219 L 200,244.36218 L 210,244.36218 L 210,236.36219 L 210,234.36218 L 210,221.36218 L 210,212.36218 L 200,212.36218 L 188,212.36218 L 178,212.36218 z "
         id="path2271" />
      <path
         style="fill:#999999;fill-opacity:1;stroke:none;stroke-width:0.5;stroke-linecap:round;stroke-linejoin:round;stroke-miterlimit:4;stroke-dasharray:none;stroke-dashoffset:0;stroke-opacity:1"
         d="M 212,212.375 L 212,244.375 L 244,244.375 L 244,212.375 L 234,212.375 L 234,234.375 L 233,234.375 L 233,212.375 L 223,212.375 L 223,234.375 L 222,234.375 L 222,212.375 L 212,212.375 z "
         id="path2273" />
      <path
         style="fill:#999999;fill-opacity:1;stroke:none;stroke-width:0.5;stroke-linecap:round;stroke-linejoin:round;stroke-miterlimit:4;stroke-dasharray:none;stroke-dashoffset:0;stroke-opacity:1"
         d="M 280,212.36218 L 280,233.36218 L 302,233.36218 L 302,234.36218 L 280,234.36218 L 280,244.36218 L 312,244.36218 L 312,223.36218 L 290,223.36218 L 290,222.36218 L 312,222.36218 L 312,212.36218 L 280,212.36218 z "
         id="path2275" />
      <path
         style="fill:#999999;fill-opacity:1;stroke:none;stroke-width:0.5;stroke-linecap:round;stroke-linejoin:round;stroke-miterlimit:4;stroke-dasharray:none;stroke-dashoffset:0;stroke-opacity:1"
         d="M 314,212.36218 L 314,244.36218 L 346,244.36218 L 346,212.36218 L 314,212.36218 z M 330,222.36218 L 331,222.36218 L 331,235.36218 L 330,235.36218 L 330,222.36218 z "
         id="path2277" />
      <path
         style="fill:#999999;fill-opacity:1;stroke:none;stroke-width:0.5;stroke-linecap:round;stroke-linejoin:round;stroke-miterlimit:4;stroke-dasharray:none;stroke-dashoffset:0;stroke-opacity:1"
         d="M 348,212.36218 L 348,244.36218 L 358,244.36218 L 358,222.36218 L 359,222.36218 L 359,244.36218 L 369,244.36218 L 369,222.36218 L 370,222.36218 L 370,244.36218 L 380,244.36218 L 380,212.36218 L 348,212.36218 z "
         id="path2279" />
      <path
         style="fill:#999999;fill-opacity:1;stroke:none;stroke-width:0.5;stroke-linecap:round;stroke-linejoin:round;stroke-miterlimit:4;stroke-dasharray:none;stroke-dashoffset:0;stroke-opacity:1"
         d="M 382,212.36218 L 382,244.36218 L 414,244.36218 L 414,234.36218 L 392,234.36218 L 392,233.36218 L 414,233.36218 L 414,223.36218 L 392,223.36218 L 392,222.36218 L 414,222.36218 L 414,212.36218 L 382,212.36218 z "
         id="path2281" />
      <path
         id="path2379"
         d="M 178,212.36218 L 178,222.36218 L 188,222.36218 L 200,222.36218 L 200,223.36218 L 188,223.36218 L 178,223.36218 L 178,235.36218 L 178,244.36218 L 191.53125,244.36218 L 199,244.36218 L 199,234.36218 L 191.53125,234.36218 L 188,234.36218 L 188,233.36218 L 200,233.36218 L 200,234.36218 L 200,236.36219 L 200,244.36218 L 210,244.36218 L 210,236.36219 L 210,234.36218 L 210,221.36218 L 210,212.36218 L 200,212.36218 L 188,212.36218 L 178,212.36218 z "
         style="fill:#535d6c;fill-opacity:1;stroke:none;stroke-width:0.5;stroke-linecap:round;stroke-linejoin:round;stroke-miterlimit:4;stroke-dasharray:none;stroke-dashoffset:0;stroke-opacity:1" />
      <path
         id="path2696"
         d="M 278,212.36218 L 246,212.36218 L 246,244.36218 L 278,244.36218 L 278,234.36218 L 256,234.36218 L 256,233.36218 L 278,233.36218 L 278,223.36218 L 256,223.36218 L 256,222.36218 L 278,222.36218 L 278,212.36218 z "
         style="fill:#999999;fill-opacity:1;stroke:none;stroke-width:0.5;stroke-linecap:round;stroke-linejoin:round;stroke-miterlimit:4;stroke-dasharray:none;stroke-dashoffset:0;stroke-opacity:1" />
    </g>
    <g
       id="g2734"
       transform="translate(-14,2.0000026)">
      <path
         id="path2710"
         d="M 472,192.36218 L 472,207.98318 L 487.625,207.98318 L 506.375,207.98318 L 506.375,209.54527 L 487.625,209.54527 L 472,209.54527 L 472,228.29046 L 472,242.34936 L 493.14258,242.34936 L 504.81249,242.34936 L 504.81249,226.72837 L 493.14258,226.72837 L 487.625,226.72837 L 487.625,225.16626 L 506.375,225.16626 L 506.375,226.72837 L 506.375,229.85259 L 506.375,242.34936 L 522,242.34936 L 522,229.85259 L 522,226.72837 L 522,206.42107 L 522,192.36218 L 506.375,192.36218 L 487.625,192.36218 L 472,192.36218 z "
         style="fill:#535d6c;fill-opacity:1;stroke:none;stroke-width:0.5;stroke-linecap:round;stroke-linejoin:round;stroke-miterlimit:4;stroke-dasharray:none;stroke-dashoffset:0;stroke-opacity:1" />
      <path
         id="path2712"
         d="M 524,210.36218 L 524,242.36218 L 556,242.36218 L 556,210.36218 L 546,210.36218 L 546,232.36218 L 545,232.36218 L 545,210.36218 L 535,210.36218 L 535,232.36218 L 534,232.36218 L 534,210.36218 L 524,210.36218 z "
         style="fill:#999999;fill-opacity:1;stroke:none;stroke-width:0.5;stroke-linecap:round;stroke-linejoin:round;stroke-miterlimit:4;stroke-dasharray:none;stroke-dashoffset:0;stroke-opacity:1" />
      <path
         id="path2714"
         d="M 592,210.34936 L 592,231.34936 L 614,231.34936 L 614,232.34936 L 592,232.34936 L 592,242.34936 L 624,242.34936 L 624,221.34936 L 602,221.34936 L 602,220.34936 L 624,220.34936 L 624,210.34936 L 592,210.34936 z "
         style="fill:#999999;fill-opacity:1;stroke:none;stroke-width:0.5;stroke-linecap:round;stroke-linejoin:round;stroke-miterlimit:4;stroke-dasharray:none;stroke-dashoffset:0;stroke-opacity:1" />
      <path
         id="path2716"
         d="M 626,210.34936 L 626,242.34936 L 658,242.34936 L 658,210.34936 L 626,210.34936 z M 642,220.34936 L 643,220.34936 L 643,233.34936 L 642,233.34936 L 642,220.34936 z "
         style="fill:#999999;fill-opacity:1;stroke:none;stroke-width:0.5;stroke-linecap:round;stroke-linejoin:round;stroke-miterlimit:4;stroke-dasharray:none;stroke-dashoffset:0;stroke-opacity:1" />
      <path
         id="path2718"
         d="M 660,210.34936 L 660,242.34936 L 670,242.34936 L 670,220.34936 L 671,220.34936 L 671,242.34936 L 681,242.34936 L 681,220.34936 L 682,220.34936 L 682,242.34936 L 692,242.34936 L 692,210.34936 L 660,210.34936 z "
         style="fill:#999999;fill-opacity:1;stroke:none;stroke-width:0.5;stroke-linecap:round;stroke-linejoin:round;stroke-miterlimit:4;stroke-dasharray:none;stroke-dashoffset:0;stroke-opacity:1" />
      <path
         id="path2720"
         d="M 694,210.34936 L 694,242.34936 L 726,242.34936 L 726,232.34936 L 704,232.34936 L 704,231.34936 L 726,231.34936 L 726,221.34936 L 704,221.34936 L 704,220.34936 L 726,220.34936 L 726,210.34936 L 694,210.34936 z "
         style="fill:#999999;fill-opacity:1;stroke:none;stroke-width:0.5;stroke-linecap:round;stroke-linejoin:round;stroke-miterlimit:4;stroke-dasharray:none;stroke-dashoffset:0;stroke-opacity:1" />
      <path
         style="fill:#999999;fill-opacity:1;stroke:none;stroke-width:0.5;stroke-linecap:round;stroke-linejoin:round;stroke-miterlimit:4;stroke-dasharray:none;stroke-dashoffset:0;stroke-opacity:1"
         d="M 590,210.34936 L 558,210.34936 L 558,242.34936 L 590,242.34936 L 590,232.34936 L 568,232.34936 L 568,231.34936 L 590,231.34936 L 590,221.34936 L 568,221.34936 L 568,220.34936 L 590,220.34936 L 590,210.34936 z "
         id="path2724" />
    </g>
  </g>
</svg>
