<?xml version="1.0" encoding="UTF-8" standalone="no"?>
<!-- Created with Inkscape (http://www.inkscape.org/) -->

<svg
   width="112.65951mm"
   height="17.608902mm"
   viewBox="0 0 112.65951 17.608902"
   version="1.1"
   id="svg5"
   xml:space="preserve"
   inkscape:version="1.2.1 (9c6d41e410, 2022-07-14, custom)"
   sodipodi:docname="awesome-dark-2.svg"
   xmlns:inkscape="http://www.inkscape.org/namespaces/inkscape"
   xmlns:sodipodi="http://sodipodi.sourceforge.net/DTD/sodipodi-0.dtd"
   xmlns="http://www.w3.org/2000/svg"
   xmlns:svg="http://www.w3.org/2000/svg"><sodipodi:namedview
     id="namedview7"
     pagecolor="#ffffff"
     bordercolor="#666666"
     borderopacity="1.0"
     inkscape:showpageshadow="2"
     inkscape:pageopacity="0.0"
     inkscape:pagecheckerboard="0"
     inkscape:deskcolor="#d1d1d1"
     inkscape:document-units="mm"
     showgrid="false"
     inkscape:zoom="2.8680251"
     inkscape:cx="300.38091"
     inkscape:cy="298.98623"
     inkscape:window-width="3840"
     inkscape:window-height="2131"
     inkscape:window-x="0"
     inkscape:window-y="29"
     inkscape:window-maximized="1"
     inkscape:current-layer="g126891" /><defs
     id="defs2"><filter
       style="color-interpolation-filters:sRGB"
       inkscape:label="Drop Shadow"
       id="filter127375"
       x="-0.0088181629"
       y="-0.067707558"
       width="1.0213106"
       height="1.1636266"><feFlood
         flood-opacity="0.341176"
         flood-color="rgb(170,170,160)"
         result="flood"
         id="feFlood127365" /><feComposite
         in="flood"
         in2="SourceGraphic"
         operator="in"
         result="composite1"
         id="feComposite127367" /><feGaussianBlur
         in="composite1"
         stdDeviation="0.3"
         result="blur"
         id="feGaussianBlur127369" /><feOffset
         dx="0.3"
         dy="0.3"
         result="offset"
         id="feOffset127371" /><feComposite
         in="SourceGraphic"
         in2="offset"
         operator="over"
         result="composite2"
         id="feComposite127373" /></filter><filter
       style="color-interpolation-filters:sRGB"
       inkscape:label="Drop Shadow"
       id="filter127867"
       x="-0.068031715"
       y="-0.068031715"
       width="1.16441"
       height="1.16441"><feFlood
         flood-opacity="0.909804"
         flood-color="rgb(170,170,160)"
         result="flood"
         id="feFlood127857" /><feComposite
         in="flood"
         in2="SourceGraphic"
         operator="in"
         result="composite1"
         id="feComposite127859" /><feGaussianBlur
         in="composite1"
         stdDeviation="0.3"
         result="blur"
         id="feGaussianBlur127861" /><feOffset
         dx="0.3"
         dy="0.3"
         result="offset"
         id="feOffset127863" /><feComposite
         in="SourceGraphic"
         in2="offset"
         operator="over"
         result="composite2"
         id="feComposite127865" /></filter><filter
       style="color-interpolation-filters:sRGB"
       inkscape:label="Drop Shadow"
       id="filter127879"
       x="-0.068031715"
       y="-0.068031715"
       width="1.16441"
       height="1.16441"><feFlood
         flood-opacity="0.909804"
         flood-color="rgb(170,170,160)"
         result="flood"
         id="feFlood127869" /><feComposite
         in="flood"
         in2="SourceGraphic"
         operator="in"
         result="composite1"
         id="feComposite127871" /><feGaussianBlur
         in="composite1"
         stdDeviation="0.3"
         result="blur"
         id="feGaussianBlur127873" /><feOffset
         dx="0.3"
         dy="0.3"
         result="offset"
         id="feOffset127875" /><feComposite
         in="SourceGraphic"
         in2="offset"
         operator="over"
         result="composite2"
         id="feComposite127877" /></filter><filter
       style="color-interpolation-filters:sRGB"
       inkscape:label="Drop Shadow"
       id="filter127939"
       x="-0.049861376"
       y="-0.049885176"
       width="1.1308861"
       height="1.1309486"><feFlood
         flood-opacity="0.513726"
         flood-color="rgb(170,170,160)"
         result="flood"
         id="feFlood127929" /><feComposite
         in="flood"
         in2="SourceGraphic"
         operator="in"
         result="composite1"
         id="feComposite127931" /><feGaussianBlur
         in="composite1"
         stdDeviation="0.2"
         result="blur"
         id="feGaussianBlur127933" /><feOffset
         dx="0.3"
         dy="0.3"
         result="offset"
         id="feOffset127935" /><feComposite
         in="SourceGraphic"
         in2="offset"
         operator="over"
         result="composite2"
         id="feComposite127937" /></filter></defs><g
     inkscape:label="AWESOME 6"
     inkscape:groupmode="layer"
     id="g126891"
     style="display:inline"
     transform="translate(-16.232479,-25.819274)"><g
       id="g126851"
       inkscape:label="underLetters"
       style="filter:url(#filter127375)"
       transform="translate(0,-1.7329156)"><rect
         style="fill:#222222;fill-opacity:1;fill-rule:evenodd;stroke-width:0.259033"
         id="rect126837"
         width="10.599338"
         height="10.589584"
         x="16.216658"
         y="33.549"
         inkscape:label="underLetter7" /><rect
         style="fill:#222222;fill-opacity:1;fill-rule:evenodd;stroke-width:0.26265"
         id="rect126839"
         width="10.897376"
         height="10.589584"
         x="28.011488"
         y="33.543594"
         inkscape:label="underLetter6" /><rect
         style="fill:#222222;fill-opacity:1;fill-rule:evenodd;stroke-width:0.257088"
         id="rect126841"
         width="10.50198"
         height="10.527855"
         x="40.112606"
         y="33.578739"
         inkscape:label="underLetter5" /><rect
         style="fill:#222222;fill-opacity:1;fill-rule:evenodd;stroke-width:0.25713"
         id="rect126843"
         width="10.52349"
         height="10.509721"
         x="51.948662"
         y="33.564819"
         inkscape:label="underLetter4" /><rect
         style="fill:#222222;fill-opacity:1;fill-rule:evenodd;stroke-width:0.259033"
         id="rect126845"
         width="10.599338"
         height="10.589584"
         x="63.735455"
         y="33.536289"
         inkscape:label="underLetter3" /><rect
         style="fill:#222222;fill-opacity:1;fill-rule:evenodd;stroke-width:0.257964"
         id="rect126847"
         width="10.512033"
         height="10.589584"
         x="75.541809"
         y="33.580673"
         inkscape:label="underLetter2" /><rect
         style="fill:#222222;fill-opacity:1;fill-rule:evenodd;stroke-width:0.258545"
         id="rect126849"
         width="10.559443"
         height="10.589584"
         x="87.306877"
         y="33.548592"
         inkscape:label="underLetter1" /></g><path
       id="path126853"
       style="fill:#7892b1;fill-opacity:1;stroke-width:0.201443;filter:url(#filter127939)"
       inkscape:label="cut-circle"
       d="m 126.89222,26.299278 a 1.2197143,1.2197143 0 0 0 -1.21974,1.219756 1.2197143,1.2197143 0 0 0 1.21974,1.219757 1.2197143,1.2197143 0 0 0 1.21976,-1.219757 1.2197143,1.2197143 0 0 0 -1.21976,-1.219756 z m -4.32371,1.455665 a 4.0831433,4.0831433 0 0 0 -4.08322,4.083215 4.0831433,4.0831433 0 0 0 4.08322,4.083217 4.0831433,4.0831433 0 0 0 4.08321,-4.083217 4.0831433,4.0831433 0 0 0 -4.08321,-4.083215 z m 1.42081,1.410857 a 1.2197143,1.2197143 0 0 1 1.21977,1.219757 1.2197143,1.2197143 0 0 1 -1.21977,1.219756 1.2197143,1.2197143 0 0 1 -1.21975,-1.219756 1.2197143,1.2197143 0 0 1 1.21975,-1.219757 z"
       inkscape:export-filename="awesome3.svg"
       inkscape:export-xdpi="25.59"
       inkscape:export-ydpi="25.59" /><g
       aria-label="A"
       id="text126857"
       style="font-size:10.5833px;line-height:1.25;font-family:awesomewm-font;-inkscape-font-specification:awesomewm-font;fill:#c13e4b;stroke-width:0.264583"
       inkscape:label="A"><path
         d="M 16.232481,42.406261 V 35.46097 H 23.5085 v -0.330728 h -7.276019 v -3.307281 h 10.5833 v 10.5833 H 23.5085 v -3.63801 h -3.968738 v 0.330728 h 3.638009 v 3.307282 z"
         id="path108" /></g><g
       aria-label="W"
       id="text126861"
       style="font-size:10.5833px;line-height:1.25;font-family:awesomewm-font;-inkscape-font-specification:awesomewm-font;fill:#d17255;stroke-width:0.264583"
       inkscape:label="W"><path
         d="m 28.015234,31.821286 h 7.276018 v 7.276019 h 0.330729 v -7.276019 h 3.307281 v 10.5833 H 28.015234 q 0,-2.480461 0.527098,-2.893871 0.537433,-0.41341 3.110911,-0.41341 v -7.276019 h -0.330728 v 7.286354 l -3.307281,3.296946 z"
         id="path111" /></g><g
       aria-label="E"
       id="text126865"
       style="font-size:10.5833px;line-height:1.25;font-family:awesomewm-font;-inkscape-font-specification:awesomewm-font;fill:#e8cc5c;stroke-width:0.264583"
       inkscape:label="E"><path
         d="m 50.723295,31.831029 v 6.94529 h -7.276018 v 0.330729 h 7.276018 v 3.307281 H 40.139996 v -10.5833 q 2.48046,0 2.893871,0.537433 0.41341,0.527098 0.41341,3.100576 h 7.276018 V 35.13831 h -7.286354 l -3.296945,-3.307281 z"
         id="path114" /></g><g
       aria-label="S"
       id="text126869"
       style="font-size:10.5833px;line-height:1.25;font-family:awesomewm-font;-inkscape-font-specification:awesomewm-font;fill:#8ebc65;stroke-width:0.264583"
       inkscape:label="S"><path
         d="m 62.521837,42.402442 v -6.94529 h -7.276018 v -0.330728 h 7.276018 V 31.819142 H 51.938538 v 6.945291 h 7.276018 v 0.341063 h -7.276018 v 3.296946 z"
         id="path117" /></g><g
       aria-label="O"
       id="text126873"
       style="font-size:10.5833px;line-height:1.25;font-family:awesomewm-font;-inkscape-font-specification:awesomewm-font;fill:#af70a4;stroke-width:0.264583"
       inkscape:label="O"><path
         d="m 67.096075,42.413425 q 0,-2.718172 0,-3.172923 0.01033,-0.465087 0.01033,-0.465087 0,0 0,-0.454751 -0.01033,-0.465086 -0.02067,-3.183258 h 7.234677 V 31.830125 H 63.737118 q 0,3.958402 0,4.619858 0,0.661457 0,0.671792 0,0 0,0.661456 0,0.671792 0,4.630194 z m 1.333248,0 q 0,-2.728507 0,-3.183258 0,-0.454752 0,-0.454752 0,0 0,-0.454751 0,-0.454751 0,-3.183258 0,0 0.795814,0 0.78548,0 1.80867,0 1.02319,0 1.984368,0 0.971514,0 1.302242,0 V 31.830125 H 63.737118 q 0,3.958402 0,4.619858 0,0.661457 0,0.671792 0,0 0,0.661456 0,0.671792 0,4.630194 z m 0.434081,0 q 0,0 0,-0.113688 0,-0.113688 0,-0.795815 0,-0.682126 0,-2.160068 0,-1.477941 0,-4.206448 h 5.405337 V 31.830125 H 63.737118 q 0,3.958402 0,4.619858 0,0.661457 0,0.671792 0,0 0,0.661456 0,0.671792 0,4.630194 z m 2.098056,-10.5833 q 0,2.718172 -0.01033,3.172923 0,0.465086 0,0.465086 0,0 0,0.454751 0.01033,0.465087 0.02067,3.183258 h -7.234677 v 3.307282 h 10.583299 q 0,-3.958402 0,-4.619859 0,-0.661456 0,-0.661456 0,-0.01033 0,-0.671791 0,-0.671792 0,-4.630194 z m -1.333248,0 q 0,2.728507 0,3.183258 0,0.454751 0,0.454751 0,0 0,0.454751 0,0.454752 0,3.183258 0,0 -0.795814,0 -0.795815,0 -1.819005,0 -1.012855,0 -1.984369,0 -0.961178,0 -1.291906,0 v 3.307282 h 10.583299 q 0,-3.958402 0,-4.619859 0,-0.661456 0,-0.661456 0,-0.01033 0,-0.671791 0,-0.671792 0,-4.630194 z m -0.43408,0 q 0,0 0,0.113688 0,0.113688 0,0.795814 0,0.682127 0,2.160068 0,1.477942 0,4.206448 h -5.405338 v 3.307282 h 10.531623 q 0,-3.958402 0,-4.619859 0,-0.661456 0,-0.661456 0,-0.01033 0,-0.671791 0,-0.671792 0,-4.630194 z"
         id="path120" /></g><g
       aria-label="M"
       id="text126877"
       style="font-size:10.5833px;line-height:1.25;font-family:awesomewm-font;-inkscape-font-specification:awesomewm-font;fill:#5e81ac;stroke-width:0.264583"
       inkscape:label="M"><path
         d="m 75.527039,42.414882 h 6.94529 v -7.276019 h 0.330728 v 7.276019 h 3.307281 v -10.5833 H 75.527039 q 0,2.480461 0.527098,2.893871 0.537433,0.41341 3.110911,0.41341 v 7.276019 H 78.83432 v -7.286354 l -3.307281,-3.296946 z"
         id="path123" /></g><g
       aria-label="E"
       id="text126881"
       style="font-size:10.5833px;line-height:1.25;font-family:awesomewm-font;-inkscape-font-specification:awesomewm-font;fill:#81868e;stroke-width:0.264583"
       inkscape:label="E"><path
         d="m 97.893129,31.826772 v 6.94529 h -7.276018 v 0.330728 h 7.276018 v 3.307281 H 87.30983 V 31.826772 q 2.480461,0 2.893871,0.537433 0.41341,0.527098 0.41341,3.100576 h 7.276018 V 35.134053 H 90.606776 L 87.30983,31.826772 Z"
         id="path126" /></g><g
       aria-label="w"
       id="text126885"
       style="font-size:10.5833px;line-height:1.25;font-family:awesomewm-font;-inkscape-font-specification:awesomewm-font;fill:#eaeaea;stroke-width:0.264583;filter:url(#filter127867)"
       inkscape:label="W"><path
         d="m 99.979752,31.822515 h 3.307278 v 7.276018 h 0.33073 v -7.276018 h 3.63801 v 7.276018 h 0.33073 v -7.276018 h 2.97655 V 42.405814 H 99.979752 V 31.987879 h 0.330728 v 10.087207 h 9.92184 v -9.921843 h -2.31509 v 7.276018 h -0.99219 v -7.276018 h -2.97655 v 7.276018 h -0.99219 v -7.276018 h -2.64582 v -0.165364 h -0.330728 z"
         id="path129" /></g><g
       aria-label="m"
       id="text126889"
       style="font-size:10.5833px;line-height:1.25;font-family:awesomewm-font;-inkscape-font-specification:awesomewm-font;fill:#eaeaea;stroke-width:0.264583;filter:url(#filter127879)"
       inkscape:label="M"><path
         d="m 111.76244,31.82488 h 10.5833 v 10.583299 h -3.30728 v -7.276018 h -0.33073 v 7.276018 h -3.30728 v -7.276018 h -0.33073 v 7.276018 h -3.30728 V 31.990244 h 0.33073 v 10.087207 h 2.64583 v -7.276018 h 0.99218 v 7.276018 h 2.64583 v -7.276018 h 0.99218 v 7.276018 h 2.64583 v -9.921843 h -9.92185 v -0.165364 h -0.33073 z"
         id="path132" /></g></g></svg>
