<?xml version="1.0" encoding="UTF-8" standalone="no"?>
<!-- Created with Inkscape (http://www.inkscape.org/) -->

<svg
   width="64.847534mm"
   height="51.782547mm"
   viewBox="0 0 64.847534 51.782547"
   version="1.1"
   id="svg5"
   inkscape:version="1.2.1 (9c6d41e410, 2022-07-14, custom)"
   sodipodi:docname="awesome-15yrs-anniversary.svg"
   xml:space="preserve"
   xmlns:inkscape="http://www.inkscape.org/namespaces/inkscape"
   xmlns:sodipodi="http://sodipodi.sourceforge.net/DTD/sodipodi-0.dtd"
   xmlns="http://www.w3.org/2000/svg"
   xmlns:svg="http://www.w3.org/2000/svg"><sodipodi:namedview
     id="namedview7"
     pagecolor="#ffffff"
     bordercolor="#666666"
     borderopacity="1.0"
     inkscape:showpageshadow="2"
     inkscape:pageopacity="0.0"
     inkscape:pagecheckerboard="0"
     inkscape:deskcolor="#d1d1d1"
     inkscape:document-units="mm"
     showgrid="false"
     inkscape:zoom="5.17549"
     inkscape:cx="155.92726"
     inkscape:cy="84.146622"
     inkscape:window-width="3840"
     inkscape:window-height="2131"
     inkscape:window-x="0"
     inkscape:window-y="29"
     inkscape:window-maximized="1"
     inkscape:current-layer="layer1" /><defs
     id="defs2" /><g
     inkscape:label="Vrstva 1"
     inkscape:groupmode="layer"
     id="layer1"
     transform="translate(-15.951548,-9.4948337)"><rect
       style="fill:#535d6c;fill-opacity:1;fill-rule:evenodd;stroke-width:0.265828"
       id="rect2609"
       width="64.847534"
       height="16.421408"
       x="15.951549"
       y="9.4948339"
       inkscape:export-filename="awesome-15yrs-anniversary.svg"
       inkscape:export-xdpi="25.59"
       inkscape:export-ydpi="25.59" /><rect
       style="fill:#ffffff;fill-opacity:1;fill-rule:evenodd;stroke-width:0.279786"
       id="rect3190"
       width="42.861866"
       height="12.18418"
       x="18.288153"
       y="11.675345" /><rect
       style="fill:#535d6c;fill-opacity:1;fill-rule:evenodd;stroke-width:0.226721"
       id="rect3441"
       width="47.704891"
       height="35.748558"
       x="15.963811"
       y="25.528822" /><rect
       style="fill:#ffffff;fill-rule:evenodd;stroke-width:0.224067"
       id="rect3444"
       width="42.698082"
       height="32.622353"
       x="18.381948"
       y="26.217089" /><g
       aria-label="AWESOME  WM"
       id="text1023"
       style="font-weight:bold;font-size:14.1111px;line-height:1.25;font-family:URWImpactW01-BoldCondensed;-inkscape-font-specification:'URWImpactW01-BoldCondensed Bold';fill:#535d6c;stroke-width:0.264583"
       inkscape:label="AwesomeWM"><path
         d="m 21.839141,19.017636 h 0.705555 l -0.296334,-3.951108 z m 1.890887,-6.053662 1.086555,9.412104 H 22.714029 L 22.60114,20.696857 h -0.761999 l -0.112889,1.679221 h -2.060221 l 1.03011,-9.412104 z"
         id="path303" /><path
         d="m 32.140248,22.376078 h -2.624664 l -0.564444,-5.079996 -0.635,5.079996 h -2.610553 l -0.860778,-9.412104 h 2.017888 l 0.395111,6.265328 0.634999,-6.265328 h 2.144887 l 0.493889,6.364106 0.564444,-6.364106 h 1.989665 z"
         id="path305" /><path
         d="m 37.036802,12.963974 v 1.904998 h -1.481666 v 1.763888 h 1.326444 v 1.763887 h -1.326444 v 2.102554 h 1.566333 v 1.876777 h -3.626553 v -9.412104 z"
         id="path307" /><path
         d="m 40.155368,15.800305 -0.01411,-0.832555 v -0.112889 q 0,-0.479777 -0.324556,-0.479777 -0.211666,0 -0.296333,0.169333 -0.07055,0.169333 -0.07055,0.620888 0,0.338667 0.02822,0.508 0.02822,0.155222 0.127,0.268111 0.02822,0.04233 0.05644,0.07055 0.02822,0.02822 0.112889,0.09878 0.09878,0.07056 0.268111,0.211667 0.183444,0.141111 0.522111,0.39511 0.536222,0.409222 0.860777,0.719667 0.324555,0.310444 0.493888,0.64911 0.169334,0.324555 0.225778,0.747889 0.05644,0.409221 0.05644,1.044221 0,0.874888 -0.127,1.354666 -0.126999,0.465666 -0.423333,0.761999 -0.310444,0.296333 -0.790221,0.451555 -0.479778,0.169333 -1.03011,0.169333 -0.691444,0 -1.213555,-0.239888 -0.522111,-0.254 -0.776111,-0.705555 -0.324555,-0.564444 -0.324555,-1.608666 V 19.07408 h 1.933221 v 1.28411 q 0,0.409222 0.07055,0.564444 0.08467,0.155222 0.282222,0.155222 0.423333,0 0.423333,-0.77611 0,-0.437444 -0.02822,-0.691444 -0.02822,-0.254 -0.183444,-0.465666 -0.141111,-0.225778 -0.465666,-0.479778 -0.310445,-0.254 -0.903111,-0.691444 -0.338666,-0.239888 -0.564444,-0.479777 -0.211666,-0.254 -0.338666,-0.550333 -0.127,-0.296333 -0.183445,-0.691444 -0.04233,-0.395111 -0.04233,-0.931332 0,-0.691444 0.09878,-1.100666 0.112889,-0.409222 0.352777,-0.691444 0.310445,-0.352778 0.804333,-0.536222 0.493889,-0.197555 1.100666,-0.197555 1.058332,0 1.622776,0.52211 0.564444,0.508 0.564444,1.453444 v 1.03011 z"
         id="path309" /><path
         d="m 44.854372,20.174746 q 0,0.451555 0.07055,0.620888 0.08467,0.155223 0.296334,0.155223 0.183444,0 0.253999,-0.155223 0.08467,-0.169333 0.08467,-0.550332 v -5.094108 q 0,-0.493888 -0.07056,-0.64911 -0.07055,-0.169333 -0.26811,-0.169333 -0.211667,0 -0.296334,0.183444 -0.07055,0.169333 -0.07055,0.677333 z m 2.808109,-0.663222 q 0,1.481666 -0.437444,2.144888 -0.620889,0.917221 -1.975554,0.917221 -2.469443,0 -2.469443,-2.793998 v -4.289774 q 0,-1.326444 0.620889,-2.017888 0.634999,-0.705555 1.820332,-0.705555 0.761999,0 1.326443,0.338667 0.578555,0.324555 0.846666,0.917221 0.268111,0.550333 0.268111,1.66511 z"
         id="path311" /><path
         d="M 54.774471,22.376078 H 52.96825 l 0.01411,-6.208884 -0.832555,6.208884 h -1.298221 l -0.705555,-6.180662 -0.04233,6.180662 h -1.79211 v -9.383882 h 2.765776 l 0.465666,4.261552 0.550333,-4.261552 h 2.681109 z"
         id="path313" /><path
         d="m 58.979568,12.963974 v 1.904998 h -1.481665 v 1.763888 h 1.326443 v 1.763887 h -1.326443 v 2.102554 h 1.566332 v 1.876777 h -3.626553 v -9.412104 z"
         id="path315" /><path
         d="m 70.353111,22.376078 h -2.624664 l -0.564444,-5.079996 -0.635,5.079996 H 63.91845 l -0.860778,-9.412104 h 2.017888 l 0.395111,6.265328 0.634999,-6.265328 h 2.144887 l 0.493889,6.364106 0.564444,-6.364106 h 1.989665 z"
         style="fill:#ffffff"
         id="path317" /><path
         d="m 78.170662,22.376078 h -1.806221 l 0.01411,-6.208884 -0.832555,6.208884 h -1.298221 l -0.705555,-6.180662 -0.04233,6.180662 h -1.79211 v -9.383882 h 2.765776 l 0.465666,4.261552 0.550333,-4.261552 h 2.681109 z"
         style="fill:#ffffff"
         id="path319" /></g><g
       aria-label="1"
       id="text1081"
       style="font-weight:bold;font-size:33.275px;line-height:1.25;font-family:'URWImpactW01-BoldCondensed Bold';-inkscape-font-specification:'URWImpactW01-BoldCondensed Bold,  Bold';fill:#535d6c;stroke-width:0.249562"
       inkscape:label="1"><path
         d="m 29.93511,56.815685 h -4.59195 v -13.31 q 0,-0.831875 -0.06655,-1.331 -0.06655,-0.5324 -0.2662,-0.7986 -0.19965,-0.2662 -0.565675,-0.366025 -0.366025,-0.09983 -0.99825,-0.1331 l -1.331,-0.03327 0.03327,-2.462351 q 0.831875,-0.232925 1.630475,-0.632225 0.831875,-0.3993 1.53065,-0.898425 0.698775,-0.499125 1.231175,-1.0648 0.5324,-0.565675 0.86515,-1.164625 h 2.5289 z"
         style="font-family:URWImpactW01-BoldCondensed;-inkscape-font-specification:'URWImpactW01-BoldCondensed Bold'"
         id="path322" /></g><g
       aria-label="5"
       id="text1081-5"
       style="font-weight:bold;font-size:35.2778px;line-height:1.25;font-family:'URWImpactW01-BoldCondensed Bold';-inkscape-font-specification:'URWImpactW01-BoldCondensed Bold,  Bold';fill:#535d6c;fill-opacity:1;stroke-width:0.264583"
       inkscape:label="5"
       transform="matrix(0.94322692,0,0,0.94322692,2.384834,1.5006406)"><path
         d="m 42.728308,28.064723 v 3.668891 h -6.244171 l -0.141112,4.233336 c 0.776112,-1.152408 1.810928,-1.728612 3.104447,-1.728612 1.857964,0 3.057409,1.070093 3.598336,3.21028 0.07055,0.329259 0.117592,0.740834 0.141111,1.234723 0.04704,0.470371 0.07056,1.11713 0.07056,1.940279 v 3.598336 c 0,1.340557 -0.568492,0.761152 -1.077197,1.419898 -0.531917,0.635571 -1.036985,1.291237 -1.410969,1.73257 -0.696448,0.821868 -1.123572,1.23198 -1.862367,2.151786 -0.648297,0.708502 -1.101173,1.148702 -1.822207,1.913166 -0.750763,0.795984 -2.317452,0.273233 -3.352267,-0.549916 -1.011297,-0.823149 -1.646297,-1.940279 -1.905001,-3.351391 -0.07056,-0.352778 -0.117593,-0.752593 -0.141111,-1.199445 -0.02352,-0.446852 -0.03528,-1.023056 -0.03528,-1.728612 V 42.8814 h 4.833059 l -0.07056,3.52778 c 0,0.917223 0.0588,1.528704 0.176389,1.834445 0.141111,0.282223 0.411574,0.423334 0.811389,0.423334 0.658519,0 0.987779,-0.517408 0.987779,-1.552223 l 0.03528,-6.949727 c 0,-0.635001 -0.07056,-1.058334 -0.211667,-1.270001 -0.117593,-0.211667 -0.376297,-0.3175 -0.776112,-0.3175 -0.635,0 -0.9525,0.435093 -0.9525,1.305278 H 31.862745 L 32.2508,28.064723 Z"
         style="font-family:URWImpactW01-BoldCondensed;-inkscape-font-specification:'URWImpactW01-BoldCondensed Bold';fill:#535d6c;fill-opacity:1"
         id="path1280"
         inkscape:label="path1280"
         sodipodi:nodetypes="ccccsccsscscsccssccccscccscccc" /></g><path
       id="rect1278"
       style="fill:#535d6c;fill-rule:evenodd;stroke-width:0.201696"
       d="m 32.776777,56.60751 c 0,0 -0.572491,0.102606 -0.919488,-0.222571 C 31.510292,56.059761 31.675116,55.37175 31.675116,55.37175 L 46.732962,37.758118 c 0,0 0.656908,-0.422472 1.119072,-0.08125 0.397652,0.293593 0.267225,0.892631 0.267225,0.892631"
       sodipodi:nodetypes="czccsc" /><g
       aria-label="YEAR"
       id="text1381"
       style="font-weight:bold;font-size:9.98245px;line-height:1.25;font-family:'URWImpactW01-BoldCondensed Bold';-inkscape-font-specification:'URWImpactW01-BoldCondensed Bold,  Bold';fill:#535d6c;stroke-width:0.249562"
       inkscape:label="Year"><path
         d="m 45.414295,49.374777 v 2.385805 h -1.397543 v -2.395788 l -1.01821,-4.242541 h 1.367596 l 0.359368,2.725209 0.419263,-2.725209 h 1.397543 z"
         style="font-family:URWImpactW01-BoldCondensed;-inkscape-font-specification:'URWImpactW01-BoldCondensed Bold'"
         id="path325" /><path
         d="m 49.307448,45.102288 v 1.347631 h -1.048157 v 1.247806 h 0.93835 v 1.247806 h -0.93835 v 1.487385 h 1.108052 v 1.327666 h -2.56549 v -6.658294 z"
         style="font-family:URWImpactW01-BoldCondensed;-inkscape-font-specification:'URWImpactW01-BoldCondensed Bold'"
         id="path327" /><path
         d="m 51.044403,49.384759 h 0.499123 l -0.209632,-2.795086 z m 1.337649,-4.282471 0.768648,6.658294 h -1.487385 l -0.07986,-1.187912 h -0.539053 l -0.07986,1.187912 h -1.457438 l 0.728719,-6.658294 z"
         style="font-family:URWImpactW01-BoldCondensed;-inkscape-font-specification:'URWImpactW01-BoldCondensed Bold'"
         id="path329" /><path
         d="m 54.967509,47.627848 q 0.03993,0.01 0.06988,0.01 0.03993,0 0.04991,0 0.159719,0 0.209631,-0.09982 0.0599,-0.109807 0.0599,-0.389316 v -0.509105 q 0,-0.289491 -0.08984,-0.379333 -0.07986,-0.08984 -0.369351,-0.09982 l 0.01,1.46742 z m 0.109807,-2.52556 q 0.89842,0 1.267771,0.339403 0.219613,0.209632 0.299473,0.549035 0.08984,0.329421 0.08984,0.948333 0,0.668824 -0.169702,0.958315 -0.159719,0.289491 -0.578982,0.309456 0.229597,0.07986 0.379333,0.179684 0.149737,0.08984 0.239579,0.239579 0.08984,0.139754 0.11979,0.349386 0.03993,0.199649 0.03993,0.48914 v 2.295963 h -1.367595 v -2.595437 q 0,-0.149737 -0.01996,-0.239579 -0.01,-0.08984 -0.0599,-0.139754 -0.03993,-0.05989 -0.129772,-0.07986 -0.07986,-0.01996 -0.219613,-0.01996 h -0.05989 v 3.074594 h -1.457438 l -0.01996,-6.658294 z"
         style="font-family:URWImpactW01-BoldCondensed;-inkscape-font-specification:'URWImpactW01-BoldCondensed Bold'"
         id="path331" /></g><g
       aria-label="ANNIVERSARY"
       id="text1385"
       style="font-weight:bold;font-size:5.32399px;line-height:1.25;font-family:URWImpactW01-BoldCondensed;-inkscape-font-specification:'URWImpactW01-BoldCondensed Bold';fill:#535d6c;stroke-width:0.249562"
       inkscape:label="Anniversary"><path
         d="m 37.190094,55.421008 h 0.2662 L 37.34449,53.930291 Z m 0.713415,-2.283991 0.409947,3.551101 h -0.793275 l -0.04259,-0.633555 h -0.287496 l -0.04259,0.633555 H 36.3702 l 0.388651,-3.551101 z"
         id="path334" /><path
         d="m 40.214122,56.688118 h -0.660175 l -0.436567,-1.597197 -0.0213,1.597197 h -0.649527 v -3.551101 h 0.702767 l 0.404623,1.645113 0.0053,-1.645113 h 0.649527 z"
         id="path336" /><path
         d="m 42.231912,56.688118 h -0.660174 l -0.436567,-1.597197 -0.0213,1.597197 h -0.649527 v -3.551101 h 0.702766 l 0.404624,1.645113 0.0053,-1.645113 h 0.649526 z"
         id="path338" /><path
         d="m 43.270089,56.688118 h -0.793275 v -3.551101 h 0.793275 z"
         id="path340" /><path
         d="m 45.02168,56.688118 h -1.192574 l -0.399299,-3.551101 h 0.851838 l 0.18634,2.433063 0.202311,-2.433063 h 0.798599 z"
         id="path342" /><path
         d="m 46.948962,53.137017 v 0.718738 h -0.559019 v 0.665499 h 0.500455 v 0.665499 h -0.500455 v 0.793274 h 0.590963 v 0.708091 H 45.61264 v -3.551101 z"
         id="path344" /><path
         d="m 47.992469,54.483986 q 0.0213,0.0053 0.03727,0.0053 0.0213,0 0.02662,0 0.08518,0 0.111804,-0.05324 0.03194,-0.05856 0.03194,-0.207635 v -0.271524 q 0,-0.154396 -0.04792,-0.202311 -0.04259,-0.04792 -0.196988,-0.05324 l 0.0053,0.782626 z m 0.05856,-1.346969 q 0.479159,0 0.676147,0.181015 0.117128,0.111804 0.15972,0.29282 0.04792,0.175692 0.04792,0.505779 0,0.356707 -0.09051,0.511103 -0.08518,0.154396 -0.308792,0.165044 0.122452,0.04259 0.202312,0.09583 0.07986,0.04792 0.127776,0.127776 0.04792,0.07454 0.06389,0.18634 0.0213,0.10648 0.0213,0.260875 v 1.224518 h -0.729386 v -1.384237 q 0,-0.07986 -0.01065,-0.127776 -0.0053,-0.04792 -0.03194,-0.07454 -0.0213,-0.03194 -0.06921,-0.04259 -0.04259,-0.01065 -0.117128,-0.01065 h -0.03194 v 1.639789 h -0.777302 l -0.01065,-3.551101 z"
         id="path346" /><path
         d="m 50.14336,54.207139 -0.0053,-0.314116 v -0.04259 q 0,-0.181015 -0.122452,-0.181015 -0.07986,0 -0.111804,0.06389 -0.02662,0.06389 -0.02662,0.234255 0,0.127776 0.01065,0.191664 0.01065,0.05856 0.04792,0.101156 0.01065,0.01597 0.0213,0.02662 0.01065,0.01065 0.04259,0.03727 0.03727,0.02662 0.101156,0.07986 0.06921,0.05324 0.196988,0.149072 0.202311,0.154396 0.324763,0.271524 0.122452,0.117127 0.18634,0.244903 0.06389,0.122452 0.08518,0.282172 0.0213,0.154395 0.0213,0.393975 0,0.330087 -0.04792,0.511103 -0.04791,0.175691 -0.159719,0.287495 -0.117128,0.111804 -0.298144,0.170368 -0.181015,0.06389 -0.388651,0.06389 -0.260875,0 -0.457863,-0.09051 -0.196988,-0.09583 -0.29282,-0.2662 -0.122451,-0.212959 -0.122451,-0.606934 v -0.37268 h 0.729386 v 0.484483 q 0,0.154396 0.02662,0.21296 0.03194,0.05856 0.10648,0.05856 0.15972,0 0.15972,-0.29282 0,-0.165043 -0.01065,-0.260875 -0.01065,-0.09583 -0.06921,-0.175692 -0.05324,-0.08518 -0.175692,-0.181015 -0.117128,-0.09583 -0.340735,-0.260876 -0.127776,-0.09051 -0.21296,-0.181016 -0.07986,-0.09583 -0.127775,-0.207635 -0.04792,-0.111804 -0.06921,-0.260876 -0.01597,-0.149071 -0.01597,-0.351383 0,-0.260875 0.03727,-0.415271 0.04259,-0.154396 0.133099,-0.260876 0.117128,-0.133099 0.303468,-0.202311 0.186339,-0.07454 0.415271,-0.07454 0.399299,0 0.612259,0.196987 0.212959,0.191664 0.212959,0.548371 v 0.388652 z"
         id="path348" /><path
         d="m 51.873654,55.421008 h 0.2662 L 52.02805,53.930291 Z m 0.713415,-2.283991 0.409947,3.551101 h -0.793274 l -0.04259,-0.633555 h -0.287496 l -0.04259,0.633555 H 51.05376 l 0.388651,-3.551101 z"
         id="path350" /><path
         d="m 53.965984,54.483986 q 0.0213,0.0053 0.03727,0.0053 0.0213,0 0.02662,0 0.08518,0 0.111803,-0.05324 0.03194,-0.05856 0.03194,-0.207635 v -0.271524 q 0,-0.154396 -0.04792,-0.202311 -0.04259,-0.04792 -0.196988,-0.05324 l 0.0053,0.782626 z m 0.05856,-1.346969 q 0.479159,0 0.676146,0.181015 0.117128,0.111804 0.15972,0.29282 0.04792,0.175692 0.04792,0.505779 0,0.356707 -0.09051,0.511103 -0.08518,0.154396 -0.308791,0.165044 0.122452,0.04259 0.202311,0.09583 0.07986,0.04792 0.127776,0.127776 0.04792,0.07454 0.06389,0.18634 0.0213,0.10648 0.0213,0.260875 v 1.224518 h -0.729387 v -1.384237 q 0,-0.07986 -0.01065,-0.127776 -0.0053,-0.04792 -0.03194,-0.07454 -0.0213,-0.03194 -0.06921,-0.04259 -0.04259,-0.01065 -0.117128,-0.01065 h -0.03194 v 1.639789 h -0.777303 l -0.01065,-3.551101 z"
         id="path352" /><path
         d="m 56.329835,55.415684 v 1.272434 H 55.584477 V 55.41036 L 55.04143,53.147665 h 0.729386 l 0.191664,1.453449 0.223608,-1.453449 h 0.745358 z"
         id="path354" /></g></g></svg>
